<?xml version="1.0" ?><!DOCTYPE svg  PUBLIC '-//W3C//DTD SVG 1.1//EN'  'http://www.w3.org/Graphics/SVG/1.1/DTD/svg11.dtd'><svg enable-background="new 0 0 512 512" id="Layer_1" version="1.1" viewBox="0 0 512 512" xml:space="preserve" xmlns="http://www.w3.org/2000/svg" xmlns:xlink="http://www.w3.org/1999/xlink"><g><circle cx="256" cy="256" fill="#45668E" r="256"/><path d="M212.1,192.4c1.2-3.1,3.4-5,6.2-6.4c5.3-2.6,11-3.4,16.7-3.3c8.2,0.2,16.4,0.7,24.5,1   c3.7,0.2,7.3,0.3,10.8,1.7c5.2,2.1,7.9,6,8.1,11.5c0.1,4.4-0.5,8.9-0.7,13.4c-0.3,9.5-0.7,19-0.7,28.5c0,3,1.3,6,2.1,9   c0.2,0.8,0.8,1.6,1.3,2.3c2,2.8,2.6,2.8,5.4,1c5.2-3.3,9.1-7.8,12.6-12.8c4.8-6.8,9-13.8,12.6-21.2c3.5-7.4,7.1-14.9,10.4-22.4   c1.6-3.8,4.2-5.4,8.3-5.3c15.3,0.1,30.7,0.1,46,0c4.9,0,8.4,4.2,7.3,9c-1.2,5.1-3.5,9.7-6.2,14c-7.6,12.4-16.1,24.1-25.7,35   c-3.4,3.8-6.4,7.9-8,12.9c-1.7,5.4-0.6,10.2,3.4,14.2c7.1,7.1,14.5,14,21.4,21.3c4.1,4.3,7.7,9.1,11.3,13.9c2.3,3,3.8,6.6,3.4,10.6   c-0.5,4.5-2.7,6.8-7.2,7c-8.6,0.5-17.3,0.8-26,1.2c-5,0.2-10.1,0.5-15.1,0.7c-4,0.2-7.6-1.3-11-3.3c-5.4-3.1-10-7.3-14.4-11.7   c-4.6-4.5-8.9-9.2-12.4-14.7c-2.2-3.5-8.3-5.4-12.1-3.9c-3,1.1-4.4,3.5-4.7,6.5c-0.5,5-0.8,9.9-1.2,14.9   c-0.6,6.1-4.4,9.9-10.5,10.7c-12,1.6-23.9,1-35.7-1.3c-8.7-1.7-16.2-5.9-23.3-11c-9.8-6.9-18.1-15.4-25.9-24.3   c-4-4.7-7.6-9.8-11-14.9c-11.1-16.3-21.6-32.9-30.7-50.4c-4.4-8.4-8.8-16.7-11.1-26c-0.5-2.1-0.8-4.2-1.2-6.3   c-0.2-1,0.2-1.8,1.1-2.1c2.5-0.8,5-1.9,7.5-2c8.1-0.3,16.3-0.3,24.4-0.4c3.5,0,7,0.3,10.5,0.2c4.7-0.2,7.9,1.9,9.9,5.9   c2,4,3.8,8.1,5.7,12.1c6.9,14.4,14.4,28.5,24.2,41.2c1.4,1.9,3.6,3.4,5.7,4.6c2.5,1.4,4.7,0.7,6.2-1.8c1.8-2.9,2.6-6.2,2.7-9.6   c0.1-9.6,0.4-19.2,0.3-28.8c-0.1-9.9-5-16.5-14.4-20.1C212.7,192.7,212.4,192.6,212.1,192.4z" fill="#FFFFFF"/></g></svg>