<?xml version="1.0" encoding="utf-8"?>
<!-- Generator: Adobe Illustrator 18.1.1, SVG Export Plug-In . SVG Version: 6.00 Build 0)  -->
<!DOCTYPE svg PUBLIC "-//W3C//DTD SVG 1.1//EN" "http://www.w3.org/Graphics/SVG/1.1/DTD/svg11.dtd">
<svg version="1.1" id="Layer_1" xmlns="http://www.w3.org/2000/svg" xmlns:xlink="http://www.w3.org/1999/xlink" x="0px" y="0px"
	 viewBox="0 0 400 400" enable-background="new 0 0 400 400" xml:space="preserve">
<g>
	<circle fill="#957D60" cx="200" cy="200" r="188.4"/>
	<g>
		<linearGradient id="SVGID_1_" gradientUnits="userSpaceOnUse" x1="199.9993" y1="371.7186" x2="199.9993" y2="28.2809">
			<stop  offset="0.5914" style="stop-color:#C2B59B"/>
			<stop  offset="0.6007" style="stop-color:#C5B89F"/>
			<stop  offset="0.6104" style="stop-color:#CDC2AC"/>
			<stop  offset="0.6203" style="stop-color:#DAD1C1"/>
			<stop  offset="0.6302" style="stop-color:#ECE7DD"/>
			<stop  offset="0.6344" style="stop-color:#F5F2EC"/>
		</linearGradient>
		<path fill="url(#SVGID_1_)" d="M36.3,148.1c-5.2,16.4-8,33.8-8,51.9c0,94.8,76.9,171.7,171.7,171.7c94.8,0,171.7-76.9,171.7-171.7
			c0-18.1-2.8-35.5-8-51.9H36.3z"/>
	</g>
	<g>
		<linearGradient id="SVGID_2_" gradientUnits="userSpaceOnUse" x1="200" y1="147.9911" x2="200" y2="11.5991">
			<stop  offset="5.376340e-003" style="stop-color:#41312C"/>
			<stop  offset="9.677420e-002" style="stop-color:#725A50"/>
			<stop  offset="0.4677" style="stop-color:#43332E"/>
			<stop  offset="0.8387" style="stop-color:#41312C"/>
			<stop  offset="1" style="stop-color:#41312C"/>
		</linearGradient>
		<path fill="url(#SVGID_2_)" d="M200,11.6C114,11.6,41.4,69.2,18.9,148h362.3C358.6,69.2,286,11.6,200,11.6z"/>
	</g>
	<linearGradient id="SVGID_3_" gradientUnits="userSpaceOnUse" x1="80.7617" y1="139.7902" x2="80.7617" y2="13.578">
		<stop  offset="0" style="stop-color:#E02228"/>
		<stop  offset="1" style="stop-color:#F1654F"/>
	</linearGradient>
	<path fill="url(#SVGID_3_)" d="M86.5,139.8V49.7c-4,3.1-7.8,6.3-11.5,9.7v80.4H86.5z"/>
	<linearGradient id="SVGID_4_" gradientUnits="userSpaceOnUse" x1="92.2917" y1="139.7902" x2="92.2917" y2="13.5779">
		<stop  offset="0" style="stop-color:#FCBC0B"/>
		<stop  offset="1" style="stop-color:#FEDE74"/>
	</linearGradient>
	<path fill="url(#SVGID_4_)" d="M98.1,139.8V41.4c-3.9,2.6-7.8,5.4-11.5,8.3v90.1H98.1z"/>
	<linearGradient id="SVGID_5_" gradientUnits="userSpaceOnUse" x1="103.821" y1="139.7902" x2="103.821" y2="13.5778">
		<stop  offset="0" style="stop-color:#91C65F"/>
		<stop  offset="1" style="stop-color:#C4DE95"/>
	</linearGradient>
	<path fill="url(#SVGID_5_)" d="M98.1,139.8h11.5V34.4c-3.9,2.2-7.8,4.6-11.5,7V139.8z"/>
	<linearGradient id="SVGID_6_" gradientUnits="userSpaceOnUse" x1="115.3509" y1="139.7902" x2="115.3509" y2="13.5787">
		<stop  offset="0" style="stop-color:#3A75BA"/>
		<stop  offset="1" style="stop-color:#4792CE"/>
	</linearGradient>
	<path fill="url(#SVGID_6_)" d="M121.1,139.8V28.4c-3.9,1.9-7.8,3.9-11.5,6v105.4H121.1z"/>
	<path fill="#2B201E" stroke="#2B201E" stroke-miterlimit="10" d="M133.8,154.1c0,13.1-12,23.8-26.7,23.8H88.8
		c-14.8,0-26.7-10.7-26.7-23.8l0,0c0-13.1,12-23.8,26.7-23.8H107C121.8,130.3,133.8,141,133.8,154.1L133.8,154.1z"/>
	<path opacity="0.3" fill="#FFFFFF" d="M133.8,141.5c0,13.1-12,23.8-26.7,23.8H88.8c-14.8,0-26.7-10.7-26.7-23.8l0,0
		c0-13.1,12-23.8,26.7-23.8H107C121.8,117.7,133.8,128.3,133.8,141.5L133.8,141.5z"/>
	<path fill="#42322C" d="M133.8,153.2c0,13.1-12,23.8-26.7,23.8H88.8c-14.8,0-26.7-10.7-26.7-23.8l0,0c0-13.1,12-23.8,26.7-23.8H107
		C121.8,129.4,133.8,140.1,133.8,153.2L133.8,153.2z"/>
	<text transform="matrix(1 0 0 1 77.3111 162.2505)" fill="#F1F2F2" font-family="'MyriadPro-Regular'" font-size="20.6063">INST</text>
	<g>
		<circle fill="#A39885" cx="200" cy="210.3" r="94.7"/>
		<circle fill="#E7E0D6" cx="200" cy="200" r="93.7"/>
		<circle cx="200" cy="200" r="81"/>
		<radialGradient id="SVGID_7_" cx="199.9999" cy="199.9996" r="76.5355" gradientUnits="userSpaceOnUse">
			<stop  offset="0" style="stop-color:#FFFFFF;stop-opacity:0.5"/>
			<stop  offset="0.8387" style="stop-color:#102A45;stop-opacity:0.9"/>
			<stop  offset="1" style="stop-color:#000000"/>
		</radialGradient>
		<path fill="url(#SVGID_7_)" d="M276.5,200c0,42.3-34.3,76.5-76.5,76.5c-42.3,0-76.5-34.3-76.5-76.5c0-42.3,34.3-76.5,76.5-76.5
			C242.3,123.5,276.5,157.7,276.5,200z"/>
		<circle fill="#364144" cx="200" cy="200" r="46.1"/>
		<radialGradient id="SVGID_8_" cx="199.9993" cy="199.9996" r="40.2311" gradientUnits="userSpaceOnUse">
			<stop  offset="0" style="stop-color:#FFFFFF"/>
			<stop  offset="0.6935" style="stop-color:#2E3192;stop-opacity:0.5"/>
			<stop  offset="1" style="stop-color:#000000"/>
		</radialGradient>
		<circle fill="url(#SVGID_8_)" cx="200" cy="200" r="40.2"/>
		<g>
			<path opacity="0.4" fill="#FFFFFF" d="M202.3,150.5c0.3,0,0.6,0.1,0.9,0.1l1.8-22.1c-0.3,0-0.6-0.1-0.9-0.1
				c-10.7-0.9-21.1,0.8-30.5,4.5l9.6,20.1C189.1,150.9,195.6,150,202.3,150.5z"/>
			<path opacity="0.4" fill="#FFFFFF" d="M173.2,160.4l-13.5-20.5c-7.5,5.3-14,12-19.2,19.7l20.7,13.2
				C164.5,168,168.5,163.8,173.2,160.4z"/>
		</g>
		<g opacity="0.3">
			<path fill="#FFFFFF" d="M277.4,200c0-2.3-0.1-4.5-0.3-6.8c-6.2-1.3-12.7-2.1-19.3-2.1c-46.3,0-84.5,34.5-90.4,79.2
				c9.9,4.6,20.9,7.2,32.5,7.2C242.7,277.5,277.4,242.8,277.4,200z"/>
		</g>
	</g>
	<path fill="#8E7B73" d="M313.5,98.6c0,11.7-9.5,21.2-21.2,21.2h-23.8c-11.7,0-21.2-9.5-21.2-21.2V77.2c0-11.7,9.5-21.2,21.2-21.2
		h23.8c11.7,0,21.2,9.5,21.2,21.2V98.6z"/>
	<linearGradient id="SVGID_9_" gradientUnits="userSpaceOnUse" x1="280.3419" y1="113.7979" x2="280.3419" y2="50.0161">
		<stop  offset="0" style="stop-color:#311E18"/>
		<stop  offset="0.8011" style="stop-color:#150C09"/>
	</linearGradient>
	<path fill="url(#SVGID_9_)" d="M313.5,92.6c0,11.7-9.5,21.2-21.2,21.2h-23.8c-11.7,0-21.2-9.5-21.2-21.2V71.2
		c0-11.7,9.5-21.2,21.2-21.2h23.8c11.7,0,21.2,9.5,21.2,21.2V92.6z"/>
	<radialGradient id="SVGID_10_" cx="280.3405" cy="82.9854" r="26.2484" gradientUnits="userSpaceOnUse">
		<stop  offset="0" style="stop-color:#57443C"/>
		<stop  offset="0.1298" style="stop-color:#42342E"/>
		<stop  offset="0.3525" style="stop-color:#261D1A"/>
		<stop  offset="0.5739" style="stop-color:#110D0C"/>
		<stop  offset="0.7913" style="stop-color:#040303"/>
		<stop  offset="1" style="stop-color:#000000"/>
	</radialGradient>
	<circle fill="url(#SVGID_10_)" cx="280.3" cy="83" r="26.2"/>
	<path opacity="0.4" fill="#FFFFFF" d="M291.6,79c0.1,0.1,0.1,0.2,0.2,0.3l7.4-4.1c-0.1-0.1-0.1-0.2-0.2-0.3c-2-3.6-4.7-6.5-7.9-8.7
		l-4.4,7.3C288.7,74.9,290.4,76.7,291.6,79z"/>
</g>
</svg>
