<?xml version="1.0" standalone="no"?>
<!DOCTYPE svg PUBLIC "-//W3C//DTD SVG 20010904//EN"
 "http://www.w3.org/TR/2001/REC-SVG-20010904/DTD/svg10.dtd">
<svg version="1.0" xmlns="http://www.w3.org/2000/svg"
 width="980.000000pt" height="980.000000pt" viewBox="0 0 980.000000 980.000000"
 preserveAspectRatio="xMidYMid meet">
<g transform="translate(0.000000,980.000000) scale(0.100000,-0.100000)"
fill="#000000" stroke="none">
<path d="M4640 9793 c-381 -26 -614 -62 -940 -143 -584 -145 -1153 -411 -1657
-772 -407 -292 -829 -714 -1121 -1121 -734 -1024 -1044 -2266 -877 -3512 123
-915 489 -1747 1090 -2477 140 -170 461 -491 633 -633 1073 -885 2423 -1273
3787 -1090 1029 139 1992 605 2738 1325 417 403 727 824 985 1340 172 344 285
644 371 985 476 1905 -202 3869 -1756 5082 -128 100 -408 288 -548 369 -756
434 -1610 660 -2470 652 -104 -1 -210 -3 -235 -5z m562 -464 c611 -42 1209
-209 1733 -484 191 -99 225 -119 225 -127 0 -14 -24 -9 -115 22 -49 17 -98 30
-110 30 -11 0 -51 -23 -88 -51 -92 -69 -92 -79 19 -211 157 -187 198 -258 199
-344 0 -81 27 -121 152 -224 99 -82 119 -90 163 -65 45 26 60 20 60 -25 0 -46
18 -86 63 -143 30 -37 31 -38 14 -66 -9 -16 -17 -41 -17 -55 0 -14 -3 -26 -6
-26 -3 0 -34 13 -68 30 -55 26 -69 39 -127 119 -73 102 -101 121 -147 97 -50
-26 -102 -81 -102 -108 0 -14 11 -45 23 -71 l24 -46 -33 -32 c-49 -48 -89
-129 -80 -163 6 -26 10 -28 39 -22 l32 6 -24 -19 c-30 -23 -19 -45 18 -37 26
6 26 6 5 -12 -17 -14 -19 -22 -11 -40 6 -12 16 -22 24 -22 10 0 12 -6 8 -20
-8 -24 43 -80 72 -80 36 0 62 28 69 76 4 26 15 54 27 65 24 22 37 24 37 7 0
-6 10 -22 22 -35 12 -13 27 -38 33 -55 10 -32 21 -41 67 -57 17 -6 50 -44 93
-106 37 -53 65 -98 63 -101 -3 -2 -73 -10 -156 -17 -224 -19 -227 -27 -103
-257 69 -130 80 -158 75 -185 -6 -36 35 -167 63 -197 23 -26 51 -23 164 17
115 40 116 40 100 21 -12 -14 -17 -41 -20 -101 l-2 -30 -15 28 c-21 39 -47 22
-74 -49 -133 -357 -314 -706 -531 -1024 -88 -129 -98 -164 -54 -198 98 -77 93
-66 115 -233 28 -211 27 -290 -7 -379 -19 -54 -24 -78 -17 -95 15 -38 528
-488 638 -560 57 -37 155 -71 180 -62 9 4 31 27 48 53 18 26 40 55 48 65 10
13 77 36 198 69 101 27 241 67 310 89 261 81 311 88 339 44 16 -24 18 -53 17
-268 -1 -132 -9 -316 -17 -410 -20 -225 -65 -376 -162 -545 -37 -63 -107 -196
-156 -295 -71 -145 -105 -200 -170 -280 -319 -394 -705 -738 -1117 -993 -593
-368 -1211 -581 -1914 -659 -257 -28 -786 -21 -983 13 -20 3 -39 17 -53 38
-12 18 -44 43 -71 56 -56 26 -97 85 -87 124 5 19 15 25 48 29 54 7 82 38 74
82 -6 30 -5 32 47 48 29 9 74 27 99 40 34 17 53 21 74 15 16 -4 38 -5 49 -2
22 7 93 59 113 83 14 17 17 234 3 293 l-9 37 152 95 c316 197 371 264 331 401
-18 65 -25 53 91 182 165 185 189 234 204 409 9 115 5 150 -21 171 -8 5 -63
16 -124 22 -401 43 -764 183 -990 380 l-60 52 -65 -5 c-75 -5 -155 -33 -224
-77 -68 -42 -89 -31 -42 21 20 22 36 49 36 61 0 46 -151 300 -211 354 -54 48
-86 61 -205 80 -175 28 -189 37 -233 164 -22 63 -40 94 -73 128 -108 111 -294
224 -518 313 -97 39 -111 42 -180 38 l-75 -4 -135 83 c-74 46 -146 86 -158 90
-16 4 -32 -1 -50 -16 -79 -63 -107 -81 -131 -81 -36 0 -128 45 -241 118 -78
50 -99 70 -119 108 -30 56 -144 180 -212 230 -28 20 -55 47 -59 60 -6 14 -5
58 1 111 10 76 17 96 50 147 51 77 83 179 67 209 -16 32 -27 37 -88 37 -67 0
-119 -23 -182 -79 -48 -43 -68 -50 -86 -28 -19 22 -35 148 -36 272 l-1 120 42
42 c22 22 68 90 102 150 l60 109 73 -4 c99 -5 162 -24 236 -72 71 -45 96 -49
145 -20 l34 20 17 -45 c18 -47 28 -53 96 -58 l35 -2 6 -135 c4 -74 7 -179 8
-232 l1 -97 -44 23 c-62 33 -257 47 -287 20 -67 -61 60 -194 241 -253 23 -7
49 -29 77 -66 49 -63 72 -77 178 -104 87 -22 97 -20 153 32 40 38 44 87 10
111 -12 9 -46 46 -75 83 -58 72 -81 91 -118 102 -22 5 -16 13 72 86 166 139
163 132 114 240 -30 67 -31 89 -2 143 7 13 69 49 156 92 155 75 173 79 279 59
46 -8 62 -8 78 3 11 8 73 76 137 153 l117 140 109 48 c133 59 341 129 570 192
577 160 545 148 545 205 0 33 -26 58 -74 71 -20 5 -36 13 -36 18 0 4 16 26 35
48 19 23 35 51 35 62 0 19 6 21 51 21 49 0 55 -3 120 -61 37 -33 77 -75 89
-94 22 -36 60 -51 90 -35 34 18 140 149 140 174 0 25 -35 62 -63 68 -14 2 -2
16 50 58 159 127 223 190 223 218 -1 65 -42 80 -157 56 -19 -4 -23 0 -23 22 0
15 -14 51 -31 80 l-30 54 25 56 c43 94 34 122 -51 155 -45 17 -79 22 -149 22
l-90 1 -50 79 c-64 103 -109 144 -169 152 -40 6 -49 4 -71 -16 -18 -17 -24
-33 -24 -67 l0 -44 -47 7 -48 6 -269 -265 c-148 -147 -273 -266 -277 -266 -17
0 -67 193 -94 362 l-6 37 140 70 c77 39 206 111 286 162 252 156 298 174 373
148 28 -9 30 -14 25 -44 -9 -54 18 -72 124 -80 l89 -7 34 -65 c56 -110 107
-112 166 -7 40 72 94 134 115 134 8 0 36 -18 63 -40 56 -47 83 -50 125 -14 88
74 128 244 62 261 -15 4 -20 17 -23 60 -4 48 -10 59 -41 88 -23 21 -37 43 -37
58 0 13 -8 31 -17 39 -18 16 -168 78 -189 78 -6 0 -22 18 -36 39 l-26 40 25
-10 c27 -10 119 14 194 52 25 12 48 16 78 12 33 -5 46 -2 64 15 22 20 23 20
83 4 73 -20 83 -28 141 -109 45 -63 45 -65 39 -122 -6 -53 -4 -60 24 -99 l30
-42 -46 -100 c-52 -115 -52 -121 4 -275 26 -68 35 -84 69 -105 22 -14 62 -40
88 -57 38 -26 59 -33 97 -33 79 0 106 20 131 101 3 9 41 35 84 59 196 106 421
291 537 443 21 27 27 45 25 71 -2 20 2 41 9 48 17 17 15 59 -4 86 -13 19 -14
28 -4 52 18 44 -18 144 -71 196 -56 54 -134 173 -159 243 -23 62 -54 87 -92
75 -11 -3 -27 1 -36 9 -9 8 -41 27 -71 42 -63 31 -116 30 -162 -4 -16 -12 -42
-21 -58 -21 -17 0 -42 -11 -59 -25 -38 -32 -119 -34 -187 -5 -26 11 -58 20
-73 20 -28 0 -62 -25 -62 -46 0 -23 -34 -21 -64 4 -27 22 -36 23 -95 17 -129
-12 -285 -47 -303 -68 -23 -25 -22 -61 3 -116 l20 -45 -28 -22 c-43 -36 -138
-84 -164 -84 -52 0 -99 -20 -105 -45 -12 -47 4 -76 49 -93 l42 -17 -30 -5
c-17 -3 -42 1 -58 8 -24 12 -34 11 -74 -2 -26 -9 -50 -16 -54 -16 -4 0 -9 21
-11 48 -3 33 0 50 11 58 22 17 28 127 8 158 -15 22 -14 24 15 46 54 39 77 142
41 182 -27 30 -69 21 -171 -36 -138 -78 -142 -81 -142 -121 0 -48 34 -69 97
-61 41 5 45 4 28 -7 -11 -6 -34 -26 -51 -44 -41 -42 -74 -36 -74 13 0 44 -26
61 -121 75 l-74 12 -77 -36 c-82 -38 -103 -62 -94 -109 l6 -29 -27 31 c-14 18
-36 35 -47 40 -29 10 -74 -7 -82 -32 -3 -12 -20 -42 -36 -67 -24 -38 -29 -55
-26 -95 l3 -49 -45 -13 c-81 -24 -93 -78 -34 -144 27 -30 33 -41 22 -45 -27
-11 -67 13 -73 42 -11 52 -19 60 -80 83 -28 10 -30 14 -27 46 2 19 -1 40 -7
48 -6 7 -46 26 -88 41 -75 28 -77 28 -121 11 -25 -9 -47 -14 -49 -12 -3 2 3
16 12 29 43 66 -4 115 -116 125 l-74 7 3 36 c2 23 -2 40 -12 48 -9 8 -16 26
-16 42 0 29 -31 59 -61 59 -9 0 -57 -21 -105 -46 -130 -68 -81 -28 74 60 760
435 1631 635 2494 575z m-1277 -1131 c-55 -94 -91 -128 -136 -128 -21 0 -42 7
-50 16 -7 9 -22 19 -32 23 -15 6 -7 12 38 29 56 22 188 103 201 123 3 6 8 8
11 5 3 -2 -12 -33 -32 -68z m-1890 -61 c-20 -29 -19 -49 6 -81 12 -15 20 -28
18 -30 -21 -16 -759 -693 -868 -795 -123 -116 -141 -130 -123 -95 41 81 263
402 365 529 206 256 462 517 529 540 28 9 35 7 60 -18 26 -26 27 -30 13 -50z
m5628 -132 c42 -85 77 -157 77 -160 0 -3 -12 -5 -27 -5 -15 0 -36 -9 -48 -20
l-21 -20 -59 60 -59 59 37 -6 c82 -13 99 54 42 161 -19 37 -35 71 -35 76 0 30
23 -6 93 -145z m472 -1066 c100 -102 145 -129 216 -129 56 0 57 -1 90 -45 37
-49 68 -63 108 -49 36 13 48 53 27 94 -9 18 -15 35 -13 36 2 2 36 -23 76 -56
57 -46 81 -60 107 -60 38 0 64 29 64 72 0 25 2 27 23 19 13 -5 34 -7 48 -4 23
4 29 -2 68 -87 23 -51 43 -101 44 -112 2 -17 -15 -28 -101 -63 -56 -24 -108
-48 -116 -54 -8 -6 -16 -38 -18 -71 -2 -33 -7 -63 -11 -66 -12 -12 -115 66
-219 164 -53 50 -104 92 -112 92 -8 0 -88 -37 -177 -83 -143 -72 -342 -153
-419 -171 l-25 -6 25 12 c14 7 58 27 98 44 100 46 104 58 51 179 l-41 94 20
43 c12 24 28 81 36 128 23 124 31 139 76 149 3 0 37 -31 75 -70z m-5346 -42
c18 -9 30 -30 46 -82 21 -68 58 -147 91 -192 15 -21 13 -23 -58 -73 -40 -29
-91 -61 -112 -72 l-39 -20 7 24 c3 12 9 36 13 51 3 18 21 39 49 58 58 40 77
69 65 101 -14 37 -35 49 -95 55 -47 5 -56 9 -56 25 0 30 -16 52 -59 83 -33 22
-39 31 -30 41 27 33 112 33 178 1z m-2142 -1111 c1 -1 -12 -55 -28 -121 -16
-66 -29 -140 -29 -165 0 -46 21 -235 41 -373 13 -88 -4 -69 177 -203 285 -210
573 -570 769 -959 l85 -171 -50 -89 c-62 -110 -117 -241 -143 -344 -23 -88
-28 -240 -10 -316 39 -162 153 -291 382 -428 20 -12 30 -33 48 -99 13 -45 28
-93 35 -105 13 -26 161 -162 266 -246 144 -115 321 -224 437 -270 37 -14 43
-22 53 -59 58 -232 172 -480 299 -649 134 -180 318 -347 516 -469 39 -24 75
-47 80 -52 13 -12 -242 78 -375 132 -844 343 -1585 970 -2072 1753 -576 927
-790 2046 -597 3124 l22 122 46 -6 c25 -3 47 -6 48 -7z"/>
<path d="M6355 8036 c-120 -28 -185 -68 -185 -115 0 -36 13 -50 87 -100 69
-46 87 -48 183 -25 80 19 145 56 165 94 22 43 20 113 -5 135 -27 24 -161 30
-245 11z"/>
<path d="M2344 4870 c-60 -26 -84 -62 -84 -124 0 -61 16 -124 38 -148 10 -12
30 -18 58 -18 38 0 48 -5 76 -37 102 -116 112 -117 201 -36 107 98 106 96 35
209 -48 77 -57 85 -134 128 -91 51 -124 56 -190 26z"/>
</g>
</svg>
