<?xml version="1.0" standalone="no"?>
<!DOCTYPE svg PUBLIC "-//W3C//DTD SVG 20010904//EN"
 "http://www.w3.org/TR/2001/REC-SVG-20010904/DTD/svg10.dtd">
<svg version="1.0" xmlns="http://www.w3.org/2000/svg"
 width="512.000000pt" height="511.000000pt" viewBox="0 0 512.000000 511.000000"
 preserveAspectRatio="xMidYMid meet">
<g transform="translate(0.000000,511.000000) scale(0.100000,-0.100000)"
fill="#000000" stroke="none">
<path d="M805 4471 c-37 -16 -63 -55 -109 -164 -47 -110 -357 -777 -575 -1237
-110 -232 -121 -260 -121 -311 0 -41 5 -63 20 -81 28 -36 335 -199 386 -205
43 -6 86 11 116 43 9 11 181 379 384 819 322 701 367 806 368 850 1 32 -5 60
-16 77 -20 31 -344 203 -398 212 -19 3 -44 2 -55 -3z"/>
<path d="M4029 4380 c-107 -54 -185 -100 -198 -116 -40 -51 -30 -96 58 -273
83 -165 270 -562 523 -1110 82 -178 157 -334 166 -347 28 -37 74 -58 118 -52
21 3 114 43 206 87 188 92 208 111 208 196 0 42 -44 141 -375 839 -317 667
-382 797 -415 829 -60 57 -82 53 -291 -53z"/>
<path d="M2550 4124 c-91 -19 -200 -59 -302 -110 l-88 -44 -383 0 -384 0 -56
-122 -56 -123 249 -3 250 -2 -31 -50 c-60 -97 -90 -202 -100 -348 -10 -154
-28 -238 -69 -332 -17 -38 -30 -83 -30 -100 0 -81 65 -143 185 -175 57 -16 72
-16 126 -5 91 20 206 79 274 142 92 85 144 185 185 354 6 24 27 61 51 88 78
88 192 124 300 93 50 -15 100 -58 749 -647 382 -347 709 -646 726 -666 106
-117 22 -314 -133 -314 -47 0 -15 -22 -641 443 -411 306 -413 307 -462 307
-70 0 -94 -25 -88 -91 3 -27 7 -51 9 -53 2 -2 204 -156 449 -341 245 -186 464
-353 487 -372 72 -58 79 -146 16 -222 -22 -26 -38 -34 -74 -38 -28 -3 -56 0
-70 7 -13 7 -219 156 -456 331 -238 176 -441 319 -451 319 -33 0 -82 -22 -92
-40 -11 -21 -12 -76 -2 -102 4 -9 167 -136 362 -283 195 -147 370 -283 387
-302 55 -61 56 -137 1 -198 -34 -39 -85 -57 -127 -45 -16 4 -179 118 -362 253
-184 134 -344 250 -357 256 -33 17 -98 5 -117 -22 -8 -12 -15 -40 -15 -63 l0
-41 230 -182 c126 -100 232 -187 236 -192 3 -6 -2 -31 -11 -55 -35 -93 -127
-100 -238 -18 -37 27 -69 59 -73 70 -9 34 -56 73 -112 93 -75 28 -172 107
-172 141 0 40 -46 124 -90 164 -44 40 -107 60 -165 53 -57 -6 -109 39 -120
103 -23 143 -112 228 -247 238 -99 7 -113 23 -114 128 -2 186 -105 284 -287
273 l-59 -4 -165 218 c-91 120 -169 219 -172 222 -6 3 -102 -201 -101 -218 0
-4 63 -91 140 -193 l139 -186 -31 -47 c-18 -25 -65 -92 -105 -149 -62 -87 -74
-111 -82 -162 -18 -108 9 -203 71 -255 102 -86 223 -97 322 -30 l37 25 -8 -47
c-25 -148 28 -258 151 -314 76 -34 198 -17 258 37 16 15 16 13 2 -32 -31 -104
-9 -180 73 -255 103 -92 211 -90 327 5 l41 33 -3 -43 c-12 -148 130 -279 265
-244 63 15 126 61 170 123 l37 53 45 -25 c60 -33 178 -41 253 -16 68 22 129
66 159 116 45 74 36 72 118 31 71 -35 80 -37 170 -37 80 0 103 4 137 22 96 51
156 128 175 223 l11 58 77 4 c95 6 160 33 223 95 57 56 89 127 96 210 l5 63
36 6 c103 17 199 66 244 126 107 139 115 326 21 480 l-35 57 51 120 c27 67 50
126 50 133 0 7 -154 345 -342 750 l-341 738 -37 -6 c-81 -13 -341 38 -560 110
-73 24 -147 40 -240 50 -161 19 -233 19 -320 0z"/>
</g>
</svg>
