<?xml version="1.0" encoding="UTF-8" standalone="no"?>
<svg
   xmlns:dc="http://purl.org/dc/elements/1.1/"
   xmlns:cc="http://creativecommons.org/ns#"
   xmlns:rdf="http://www.w3.org/1999/02/22-rdf-syntax-ns#"
   xmlns:svg="http://www.w3.org/2000/svg"
   xmlns="http://www.w3.org/2000/svg"
   xml:space="preserve"
   viewBox="0 0 498.34201 612"
   height="612"
   width="498.34201"
   y="0px"
   x="0px"
   id="Capa_1"
   version="1.1"><metadata
   id="metadata41"><rdf:RDF><cc:Work
       rdf:about=""><dc:format>image/svg+xml</dc:format><dc:type
         rdf:resource="http://purl.org/dc/dcmitype/StillImage" /></cc:Work></rdf:RDF></metadata><defs
   id="defs39" />
<g
   transform="translate(-56.829)"
   id="g4">
	<path
   id="path2"
   d="M 310.634,43.714 H 297.17 c -7.194,0 -13.026,-5.833 -13.026,-13.026 V 30.25 C 284.144,13.543 270.6,0 253.893,0 h -0.699 c -16.707,0 -30.25,13.543 -30.25,30.25 v 0.438 c 0,7.194 -5.833,13.027 -13.026,13.027 h -13.464 c -14.341,0 -25.966,11.625 -25.966,25.966 v 0.525 c 0,14.341 11.625,25.966 25.966,25.966 h 114.183 c 14.34,0 25.965,-11.626 25.965,-25.966 V 69.68 C 336.601,55.34 324.976,43.714 310.634,43.714 Z m -57.091,0 c -7.243,0 -13.114,-5.872 -13.114,-13.114 0,-7.243 5.872,-13.115 13.114,-13.115 7.243,0 13.114,5.872 13.114,13.115 0,7.243 -5.871,13.114 -13.114,13.114 z M 311.929,550.8 H 91.8 c -19.314,0 -34.971,-15.657 -34.971,-34.971 V 96.171 C 56.829,76.857 72.486,61.2 83.057,61.2 h 70.854 c -0.591,2.904 -0.91,5.914 -0.91,9.008 0,23.958 19.492,43.45 43.454,43.45 h 114.178 c 23.963,0 43.453,-19.492 43.453,-43.979 0,-2.903 -0.311,-5.733 -0.855,-8.479 h 53.312 c 28.059,0 43.715,15.657 43.715,34.971 v 262.728 c -2.906,-0.181 -5.791,-0.442 -8.742,-0.442 -12.094,0 -23.771,1.704 -34.973,4.604 v -205.69 h -306 v 349.715 h 201.528 c 0.958,15.367 4.316,30.076 9.858,43.714 z M 441.515,384.686 c -62.771,0 -113.656,50.887 -113.656,113.657 0,62.77 50.884,113.657 113.656,113.657 62.772,0 113.656,-50.887 113.656,-113.657 0,-62.77 -50.885,-113.657 -113.656,-113.657 z m 74.267,90.305 -69.943,78.686 c -3.445,3.877 -8.244,5.865 -13.076,5.865 -3.838,0 -7.697,-1.255 -10.916,-3.833 l -43.715,-34.971 c -7.539,-6.028 -8.764,-17.034 -2.727,-24.573 6.027,-7.547 17.037,-8.769 24.576,-2.731 l 30.748,24.598 58.916,-66.28 c 6.408,-7.215 17.465,-7.872 24.684,-1.451 7.221,6.42 7.869,17.468 1.453,24.69 z M 362.829,306 H 222.944 c -4.829,0 -8.743,-3.915 -8.743,-8.743 v -8.743 c 0,-4.829 3.914,-8.743 8.743,-8.743 h 139.885 c 4.828,0 8.744,3.915 8.744,8.743 v 8.743 c -0.002,4.828 -3.916,8.743 -8.744,8.743 z m 0,-78.686 H 222.944 c -4.829,0 -8.743,-3.915 -8.743,-8.743 v -8.743 c 0,-4.829 3.914,-8.743 8.743,-8.743 h 139.885 c 4.828,0 8.744,3.915 8.744,8.743 v 8.743 c -0.002,4.829 -3.916,8.743 -8.744,8.743 z m -43.715,148.629 h -96.17 c -4.829,0 -8.743,-3.915 -8.743,-8.743 v -8.743 c 0,-4.829 3.914,-8.743 8.743,-8.743 h 96.17 c 4.83,0 8.744,3.914 8.744,8.743 v 8.743 c -0.002,4.828 -3.914,8.743 -8.744,8.743 z m -17.485,78.686 h -78.686 c -4.829,0 -8.743,-3.915 -8.743,-8.743 v -8.743 c 0,-4.829 3.914,-8.743 8.743,-8.743 h 78.686 c 4.829,0 8.743,3.914 8.743,8.743 v 8.743 c 0,4.828 -3.914,8.743 -8.743,8.743 z M 197.461,194.981 165.262,231.205 c -1.586,1.785 -3.795,2.701 -6.02,2.701 -1.767,0 -3.543,-0.578 -5.025,-1.765 l -20.125,-16.099 c -3.471,-2.775 -4.034,-7.841 -1.256,-11.312 2.774,-3.475 7.844,-4.037 11.314,-1.258 l 14.155,11.323 27.123,-30.513 c 2.95,-3.321 8.04,-3.624 11.363,-0.668 3.326,2.956 3.624,8.042 0.67,11.367 z m 0,77.786 -32.199,36.223 c -1.586,1.785 -3.795,2.7 -6.02,2.7 -1.767,0 -3.543,-0.577 -5.025,-1.765 l -20.125,-16.099 c -3.471,-2.775 -4.034,-7.841 -1.256,-11.312 2.774,-3.475 7.844,-4.037 11.314,-1.258 l 14.155,11.324 27.123,-30.513 c 2.95,-3.321 8.04,-3.624 11.363,-0.667 3.326,2.955 3.624,8.042 0.67,11.367 z m 0,74.389 -32.199,36.224 c -1.586,1.784 -3.795,2.7 -6.02,2.7 -1.767,0 -3.543,-0.577 -5.025,-1.765 l -20.125,-16.1 c -3.471,-2.774 -4.034,-7.841 -1.256,-11.312 2.774,-3.475 7.844,-4.037 11.314,-1.258 l 14.155,11.323 27.123,-30.513 c 2.95,-3.321 8.04,-3.624 11.363,-0.668 3.326,2.958 3.624,8.044 0.67,11.369 z m 0,74.914 -32.199,36.224 c -1.586,1.785 -3.795,2.7 -6.02,2.7 -1.767,0 -3.543,-0.577 -5.025,-1.765 l -20.125,-16.1 c -3.471,-2.774 -4.034,-7.841 -1.256,-11.312 2.774,-3.475 7.844,-4.037 11.314,-1.258 l 14.155,11.323 27.123,-30.513 c 2.95,-3.321 8.04,-3.624 11.363,-0.668 3.326,2.958 3.624,8.045 0.67,11.369 z" />
</g>
<g
   transform="translate(-56.829)"
   id="g6">
</g>
<g
   transform="translate(-56.829)"
   id="g8">
</g>
<g
   transform="translate(-56.829)"
   id="g10">
</g>
<g
   transform="translate(-56.829)"
   id="g12">
</g>
<g
   transform="translate(-56.829)"
   id="g14">
</g>
<g
   transform="translate(-56.829)"
   id="g16">
</g>
<g
   transform="translate(-56.829)"
   id="g18">
</g>
<g
   transform="translate(-56.829)"
   id="g20">
</g>
<g
   transform="translate(-56.829)"
   id="g22">
</g>
<g
   transform="translate(-56.829)"
   id="g24">
</g>
<g
   transform="translate(-56.829)"
   id="g26">
</g>
<g
   transform="translate(-56.829)"
   id="g28">
</g>
<g
   transform="translate(-56.829)"
   id="g30">
</g>
<g
   transform="translate(-56.829)"
   id="g32">
</g>
<g
   transform="translate(-56.829)"
   id="g34">
</g>
</svg>