<svg id="Layer_1" data-name="Layer 1" xmlns="http://www.w3.org/2000/svg" viewBox="0 0 976.17 157.87"><defs><style>.cls-1{fill:#386eb6;}.cls-2{fill:#396bb4;}.cls-3{fill:#395fac;}.cls-4{fill:#384fa2;}.cls-5{fill:#3854a5;}.cls-6{font-size:103.36px;fill:#54abdf;font-family:Gilda Display;}.cls-7{letter-spacing:-13px;}.cls-8,.cls-9{fill:#3f5fac;}.cls-9{letter-spacing:-22px;}.cls-10{font-size:18.37px;fill:#212323;font-family:Roboto;letter-spacing:9px;}.cls-11{fill:#3860ad;}.cls-12{fill:#3382c4;}.cls-13{fill:#23429b;}</style></defs><title>logo-karasev_1</title><path class="cls-1" d="M342.33,550a5.1,5.1,0,0,0-1-3.19l-1.89-1.36-0.88-.65a21.86,21.86,0,0,1-.67,3.09,18,18,0,0,1-3.27,6.62,20.05,20.05,0,0,1-5,4.25l-0.38.23A28.65,28.65,0,0,1,316,562.84a32.31,32.31,0,0,1-17.72-4.55l-0.44-.21-0.44-.21c-1.12-.55-1.75-0.92-1.77-0.9a26,26,0,0,0,6.2,3.58,35.38,35.38,0,0,0,16.08,3l0.47,0a36.46,36.46,0,0,0,11.7-2.71C337.44,557.28,342.26,553,342.33,550Z" transform="translate(-266.83 -471.19)"/><path class="cls-2" d="M337.17,568.12a4.61,4.61,0,0,0-.57-2.87L335.13,564l-0.68-.61a21,21,0,0,1-.79,2.71,17,17,0,0,1-3.21,5.73,17.83,17.83,0,0,1-4.47,3.56l-0.33.19a23.37,23.37,0,0,1-11.34,2.87,25,25,0,0,1-14.4-4.8l-0.35-.2-0.35-.21c-0.89-.53-1.39-0.89-1.4-0.87a20.56,20.56,0,0,0,4.89,3.44,27.36,27.36,0,0,0,13.15,3.32h0.39a29.54,29.54,0,0,0,9.93-1.9C332.56,574.41,336.89,570.86,337.17,568.12Z" transform="translate(-266.83 -471.19)"/><path class="cls-3" d="M338.84,581.57a4.55,4.55,0,0,0-.54-2.93l-1.55-1.39L336,576.6a19.52,19.52,0,0,1-.9,2.67,16,16,0,0,1-3.56,5.55,17.9,17.9,0,0,1-4.86,3.28l-0.36.17a25.58,25.58,0,0,1-12.17,2.12,28.85,28.85,0,0,1-15.27-5.79l-0.37-.23-0.37-.23c-0.94-.6-1.46-1-1.48-1a23.25,23.25,0,0,0,5.15,3.79,31.59,31.59,0,0,0,14,4.23l0.42,0A32.55,32.55,0,0,0,326.88,590C333.77,587.59,338.47,584.31,338.84,581.57Z" transform="translate(-266.83 -471.19)"/><path class="cls-4" d="M335,597a6.51,6.51,0,0,0,0-1.66,5.75,5.75,0,0,0-.17-0.72,4.8,4.8,0,0,0-.48-0.83,4.32,4.32,0,0,0-.55-0.64,3.46,3.46,0,0,0-1.56-.8,9.24,9.24,0,0,1-.31,2.79,10.48,10.48,0,0,1-2.94,4.7,15,15,0,0,1-4,2.81l-0.29.15a20.34,20.34,0,0,1-9.86,1.94A22.18,22.18,0,0,1,302.51,600l-0.3-.19-0.3-.19c-0.75-.49-1.17-0.81-1.18-0.79a18.1,18.1,0,0,0,4.12,3.12,24.28,24.28,0,0,0,11.24,3.37h0.34a25.77,25.77,0,0,0,8.62-1.18,27.61,27.61,0,0,0,7.86-4.19C333.05,599.88,334.8,598.38,335,597Z" transform="translate(-266.83 -471.19)"/><path class="cls-5" d="M332.44,612.26a3.1,3.1,0,0,0,.45-2.49,2.08,2.08,0,0,0-.3-0.55l-0.27-.33a6.79,6.79,0,0,0-.59-0.61,2.65,2.65,0,0,0-1.14-.55,8.61,8.61,0,0,1-.23,1.47,9.28,9.28,0,0,1-2.33,4.14,10.3,10.3,0,0,1-3.49,2.44l-0.08,0-0.18.09c-3.55,1.69-8.37,1.34-8.37,1.34a20,20,0,0,1-10.22-4.07l-0.24-.17-0.24-.17L304,611.61a19.5,19.5,0,0,0,3.59,3.31,18.25,18.25,0,0,0,9.34,3.15h0.29a21.26,21.26,0,0,0,7.35-.93,39.11,39.11,0,0,0,4.9-2.34A7,7,0,0,0,332.44,612.26Z" transform="translate(-266.83 -471.19)"/><path class="cls-4" d="M306,622.77s0.36,0.24.93,0.7l1.08,0.68c0.43,0.21.88,0.44,1.42,0.67a6.33,6.33,0,0,0,.84.31,8,8,0,0,0,.91.28,15.56,15.56,0,0,0,2,.43,18.38,18.38,0,0,0,2.16.21,17.15,17.15,0,0,0,2.23,0,9.92,9.92,0,0,0,1.11-.1c0.37,0,.74-0.09,1.1-0.17a16.56,16.56,0,0,0,2.1-.51,19,19,0,0,0,1.92-.7,18,18,0,0,0,1.66-.83,24.34,24.34,0,0,0,2.41-1.63l0.91-.71a7.75,7.75,0,0,1-.45,1.09,10.73,10.73,0,0,1-1.79,2.59,11.07,11.07,0,0,1-1.61,1.45,13.13,13.13,0,0,1-2.08,1.22,13.7,13.7,0,0,1-2.44.87,9.61,9.61,0,0,1-1.31.27,11.9,11.9,0,0,1-1.34.15,14.08,14.08,0,0,1-2.67-.07,9.87,9.87,0,0,1-1.29-.21,9.68,9.68,0,0,1-1.24-.32,11.7,11.7,0,0,1-2.24-.93,7.07,7.07,0,0,1-1-.58,7.81,7.81,0,0,1-.84-0.63,9,9,0,0,1-1.31-1.3,10.33,10.33,0,0,1-.76-1.14C306.17,623.18,306,622.77,306,622.77Z" transform="translate(-266.83 -471.19)"/><text class="cls-6" transform="translate(92.01 100.94)"><tspan class="cls-7">	</tspan><tspan class="cls-8" x="11.99" y="0">K</tspan><tspan class="cls-9" x="81.04" y="0">	</tspan><tspan class="cls-8" x="83.95" y="0">ARASEV</tspan></text><text class="cls-10" transform="translate(107.37 128.77)">PROFESSIO<tspan x="181.76" y="0">N</tspan><tspan x="204.45" y="0">AL DE</tspan><tspan x="300.13" y="0">N</tspan><tspan x="322.39" y="0">TIST</tspan><tspan x="398.1" y="0">R</tspan><tspan x="419.25" y="0">Y</tspan></text><path class="cls-11" d="M302.12,473a33,33,0,0,0-13.07-1.69c-4.11.29-11.35,0.79-16.86,6.28a17.7,17.7,0,0,0-5.06,9,18.34,18.34,0,0,0,.44,8.35c1.44,6.19,4.57,10.55,7.88,15.13,0.92,1.28,4.41,6,6.55,9.37a38.1,38.1,0,0,1,2.22,4c0.6,1.24,1,2.22,1.16,2.65s0.62,1.65,1.06,3.19a56.07,56.07,0,0,1,1.66,8.73,12.44,12.44,0,0,0,.28,1.78v0c0.08,0.37.15,0.64,0.15,0.66a6.35,6.35,0,0,0,2.38,2.67l0.11,0.08a11,11,0,0,1,2.07,2,11.55,11.55,0,0,1,2.38,5.7c0.6-2.53.31-4-.11-4.8-0.08-.16-0.24-0.45-0.47-0.94a26.32,26.32,0,0,1-1.08-2.69l-0.06,0c-1.13-5.52-1.51-7.71-1.58-8.45,0-.11-0.06-0.72-0.18-1.53a27.25,27.25,0,0,0-.6-2.88,68.17,68.17,0,0,0-1.95-6.68,42.81,42.81,0,0,0-2.16-5.09c-1-2.06-1.59-2.69-3-5.09-0.77-1.3-1.87-3.26-3.08-5.78a39.64,39.64,0,0,1-2.41-5.75c-0.22-.68-0.41-1.27-0.57-2,0,0-.1-0.42-0.18-0.85a22.45,22.45,0,0,1-.39-6.4,15.63,15.63,0,0,1,2.62-6.63,22.7,22.7,0,0,1,2-2.29,24.05,24.05,0,0,1,2.25-2,31.3,31.3,0,0,1,4-2.29A32.55,32.55,0,0,1,302,475.65a21.24,21.24,0,0,1,7.32,1.54,24.87,24.87,0,0,1,3.39,1.77A33.63,33.63,0,0,0,302.12,473Z" transform="translate(-266.83 -471.19)"/><path class="cls-12" d="M304.34,491.22a16,16,0,0,0,6.62.42s0.51-.08,1-0.2c4.18-1,8.72-4.6,9.54-5.25a90.77,90.77,0,0,1,11.37-7.54,25.32,25.32,0,0,1,8-3.11c2.44-.45,4.54-0.81,6.82.3a8.94,8.94,0,0,1,4.49,5.44c1.2,4.68-2.66,9.16-2.91,9a6.08,6.08,0,0,0,.24-2.25,5.31,5.31,0,0,0-2.07-3.11,8.59,8.59,0,0,0-4.17-1.84,12.43,12.43,0,0,0-4.77.06,50.22,50.22,0,0,0-10.58,3.39c-6.67,2.93-6.33,3.35-10,4.53a21.36,21.36,0,0,1-9.07,1.25A13.42,13.42,0,0,1,304.34,491.22Z" transform="translate(-266.83 -471.19)"/><path class="cls-13" d="M350.14,493.3c-1,7.09-3.31,11.37-5.34,14a40.06,40.06,0,0,0-4.73,6.83,33.69,33.69,0,0,0-2.57,6.36,26.46,26.46,0,0,0-.95,5.24c-0.16,1.81-.2,3.23-0.21,4.39,0,3.22,0,4.68-.13,5.44a8.1,8.1,0,0,1,.09,2.88c2.27-4.65,3.21-4.59,3.52-7.09,0.23-1.82.14-4.42,0.5-6.61,0.16-.93.36-1.9,0.63-2.92,0.45-1.75.84-2.65,5.21-11.66,2.85-5.89,4-8.17,4.31-11.8A13.87,13.87,0,0,0,350.14,493.3Z" transform="translate(-266.83 -471.19)"/><path class="cls-1" d="M301.26,545.47l0.41,0.14,1.16,0.36c0.5,0.15,1.11.3,1.81,0.47s1.49,0.3,2.36.42a26.22,26.22,0,0,0,2.8.22,14.16,14.16,0,0,0,1.52,0c0.52,0,1-.06,1.58-0.11a23,23,0,0,0,3.24-.59,21.11,21.11,0,0,0,3.21-1.1l0.37-.14,0.4-.19,0.8-.39c0.52-.26,1-0.55,1.46-0.81l1.4-.91c0.44-.33.9-0.63,1.31-1a30.28,30.28,0,0,0,2.33-2.07c0.71-.7,1.35-1.4,1.92-2.07a39.22,39.22,0,0,0,2.59-3.41c0.59-.86.9-1.38,0.9-1.38s-0.16.58-.55,1.56c-0.2.49-.45,1.08-0.78,1.74a22.8,22.8,0,0,1-1.23,2.16,22.09,22.09,0,0,1-1.75,2.39,21,21,0,0,1-2.29,2.41,22.53,22.53,0,0,1-2.83,2.19c-0.53.31-1.08,0.66-1.62,0.94l-0.8.4-0.4.2c-0.2.1-.3,0.13-0.46,0.2a23.08,23.08,0,0,1-3.54,1.14,19.55,19.55,0,0,1-3.56.46,14,14,0,0,1-1.71,0,15.57,15.57,0,0,1-1.63-.15,18.25,18.25,0,0,1-2.91-.59,19.2,19.2,0,0,1-4.08-1.64A13.49,13.49,0,0,1,301.26,545.47Z" transform="translate(-266.83 -471.19)"/></svg>