<svg id="Layer_1" data-name="Layer 1" xmlns="http://www.w3.org/2000/svg" viewBox="0 0 1258.82 343.08"><defs><style>.cls-1{fill:#f2f2f2;}</style></defs><title>karasev white _01</title><path class="cls-1" d="M191.18,253.87a11.1,11.1,0,0,0-2.12-7q-2.06-1.44-4.13-3L183,242.53a47.52,47.52,0,0,1-1.47,6.74,39.27,39.27,0,0,1-7.15,14.46A44.07,44.07,0,0,1,163.48,273l-.83.51a62.54,62.54,0,0,1-29,8.47,70.55,70.55,0,0,1-38.71-9.93c-.57-.26-1-.46-1-.46l-1-.46c-2.45-1.19-3.82-2-3.86-2s5.29,4.28,13.54,7.82a77.38,77.38,0,0,0,35.12,6.49l1-.08c15.83-1.29,25.55-5.93,25.55-5.93C180.5,269.87,191,260.62,191.18,253.87Z" transform="translate(-26.25 -81.81)"/><path class="cls-1" d="M179.92,293.55a10.09,10.09,0,0,0-1.24-6.27c-1.07-.91-2.15-1.84-3.22-2.8L174,283.15a44.63,44.63,0,0,1-1.73,5.91,37,37,0,0,1-7,12.51,38.75,38.75,0,0,1-9.77,7.77s-.35.22-.72.42A51.1,51.1,0,0,1,130,316a54.57,54.57,0,0,1-31.46-10.48l-.77-.44-.78-.45c-1.94-1.17-3-1.94-3.06-1.91a44.54,44.54,0,0,0,10.68,7.52,59.84,59.84,0,0,0,28.73,7.26l.86,0c13.27-.46,21.7-4.15,21.7-4.15C169.85,307.28,179.3,299.54,179.92,293.55Z" transform="translate(-26.25 -81.81)"/><path class="cls-1" d="M183.56,322.93a10,10,0,0,0-1.19-6.39q-1.68-1.49-3.37-3l-1.56-1.44a42.33,42.33,0,0,1-2,5.84A35.05,35.05,0,0,1,167.68,330a39,39,0,0,1-10.6,7.15s-.39.2-.79.38a55.94,55.94,0,0,1-26.58,4.64,63,63,0,0,1-33.36-12.66l-.81-.5c-.5-.3-.82-.51-.82-.51-2-1.3-3.19-2.15-3.23-2.12a50.58,50.58,0,0,0,11.24,8.29,69,69,0,0,0,30.52,9.23l.92,0c14.17.42,23.26-2.73,23.26-2.73C172.49,336.07,182.76,328.91,183.56,322.93Z" transform="translate(-26.25 -81.81)"/><path class="cls-1" d="M175.11,356.58A13.8,13.8,0,0,0,175,353a12.56,12.56,0,0,0-.37-1.58,10.55,10.55,0,0,0-1.05-1.81,9.21,9.21,0,0,0-1.22-1.39,7.57,7.57,0,0,0-3.41-1.75,20.14,20.14,0,0,1-.68,6.09,23,23,0,0,1-6.43,10.27,33,33,0,0,1-8.66,6.13l-.64.33A44.57,44.57,0,0,1,131,373.49a48.5,48.5,0,0,1-26.82-10.2l-.65-.41-.66-.42c-1.64-1.06-2.55-1.76-2.58-1.73a39.58,39.58,0,0,0,9,6.8,53.13,53.13,0,0,0,24.56,7.37h.75c11.45.18,18.84-2.57,18.84-2.57,2.67-1,11.29-4.18,17.17-9.15C170.92,362.92,174.73,359.65,175.11,356.58Z" transform="translate(-26.25 -81.81)"/><path class="cls-1" d="M169.58,390c.51-.9,1.79-3.17,1-5.43a4.64,4.64,0,0,0-.65-1.2c-.14-.17-.33-.42-.59-.71a13.92,13.92,0,0,0-1.28-1.34,5.88,5.88,0,0,0-2.5-1.2,18.06,18.06,0,0,1-.5,3.2,20.28,20.28,0,0,1-5.09,9,22.48,22.48,0,0,1-7.63,5.32l-.17.09-.38.19c-7.75,3.68-18.28,2.93-18.28,2.93-11.17-.9-19.49-6.74-22.32-8.9l-.53-.37-.54-.38c-1.27-1.24-2.69-2.64-2.68-2.64a42.46,42.46,0,0,0,7.85,7.22,39.82,39.82,0,0,0,20.41,6.88l.62,0a46.43,46.43,0,0,0,16.06-2,84.68,84.68,0,0,0,10.69-5.12C166.33,393.68,168.28,392.28,169.58,390Z" transform="translate(-26.25 -81.81)"/><path class="cls-1" d="M111.87,412.94s.66.62,1.77,1.75a9.16,9.16,0,0,0,1,.81c.38.29.76.65,1.2.95a30.79,30.79,0,0,0,3,1.84,14.88,14.88,0,0,0,1.84.86l1,.43,1,.37a18.46,18.46,0,0,0,2.18.68c.76.18,1.52.43,2.32.55a21.61,21.61,0,0,0,2.43.41c.83.09,1.66.21,2.51.25s1.7.12,2.56.09a24.73,24.73,0,0,0,2.58-.1,22.13,22.13,0,0,0,2.57-.25l1.27-.17c.42-.07.83-.17,1.25-.26a25,25,0,0,0,2.45-.59,19.89,19.89,0,0,0,2.34-.73c.76-.28,1.51-.54,2.21-.88s1.4-.58,2.09-1A35.37,35.37,0,0,0,155,415.8a39.62,39.62,0,0,0,4.91-4.13c1.11-1.11,1.72-1.78,1.72-1.78l-.31.57c-.21.37-.51.92-1,1.59a27.16,27.16,0,0,1-4.28,5.08,25.06,25.06,0,0,1-3.55,2.79,29.21,29.21,0,0,1-4.45,2.37,24.83,24.83,0,0,1-2.5.95c-.43.14-.86.3-1.3.42L143,424c-.45.1-.89.23-1.35.31l-1.38.21a23.66,23.66,0,0,1-2.78.32,26.35,26.35,0,0,1-2.81.05,25.57,25.57,0,0,1-2.77-.15,20.32,20.32,0,0,1-2.71-.38c-.89-.13-1.75-.38-2.6-.59a21.38,21.38,0,0,1-2.46-.78,22.27,22.27,0,0,1-2.28-1l-1.07-.5-1-.58a16.44,16.44,0,0,1-1.83-1.18,19,19,0,0,1-1.59-1.23L115,417.28c-.4-.39-.7-.8-1-1.16a11.7,11.7,0,0,1-.83-1.06C112.33,413.72,111.87,412.94,111.87,412.94Z" transform="translate(-26.25 -81.81)"/><path class="cls-1" d="M385.3,302.31q-11.52,0-28.9-26.87-7.45-11.28-15.47-22.58A98.9,98.9,0,0,0,323,233.45q-9.93-8.13-19.87-8.36v26.19q0,33.87,3.16,40.64a13.53,13.53,0,0,0,4.07,4.75,12.73,12.73,0,0,0,6,2.48,66.64,66.64,0,0,0,8.69.45l.46,2.71H264.73l.45-2.71q11.29,0,16.48-4.29,5.64-4.74,5.65-44v-56q0-24.15-1.47-33.08T281.66,151q-5.19-4.29-16.48-4.29l-.45-2.49h60.74l-.46,2.49a66.64,66.64,0,0,0-8.69.45,12.73,12.73,0,0,0-6,2.48,12.36,12.36,0,0,0-3.95,4.74,31,31,0,0,0-1.92,8.81q-1.37,9.93-1.36,32.06V221q9.7-1.58,23.15-12.76a120.26,120.26,0,0,0,23.59-26.64Q360,166.17,360,154.2q0-3.84-2.37-5.65t-8.69-1.8l-.46-2.49h56l-.45,2.49q-23.71,0-35.45,16.48-5.64,8.13-10.84,17.05t-15.69,20.54a121.88,121.88,0,0,1-24.95,20.89q21.9,1.35,35.67,16.93,8.36,9,18,24.16t15,21.9q12.64,14.9,30.48,14.9l.45,2.71Z" transform="translate(-26.25 -81.81)"/><path class="cls-1" d="M522.72,298.25c2.34-.91,3.5-3.24,3.5-7s-4-16.56-12-38.39H445.39q-9.7,28.68-9.71,36t3.73,9q3.72,1.69,13.43,1.69l.46,2.71H402.49l.46-2.71a36.59,36.59,0,0,0,10.27-1.13q3.72-1.12,8.13-6t8.46-14.11q4.06-9.25,9.71-26l20.1-58q10.61-30.7,10.61-37.26c0-4.36-1.06-7.18-3.16-8.46s-6.18-1.92-12.19-1.92l-.46-2.49h37.26l40,108.15q10.15,26.88,13.66,34.1t6.66,9.25q5.64,3.84,14.23,3.84l.45,2.71H510.19l.45-2.71Q519.22,299.6,522.72,298.25ZM479,156.46l-31.83,91h65.25Z" transform="translate(-26.25 -81.81)"/><path class="cls-1" d="M685.17,302.31q-5.64,0-11.17-5.76a60.25,60.25,0,0,1-9.94-14.33q-4.39-8.58-10.27-18.63t-11.74-18.85a54.22,54.22,0,0,0-14.9-14.91A36.78,36.78,0,0,0,608,223.29v28q0,24.39,1.46,33.08t4.18,10.95q5.42,4.29,16.71,4.29l.45,2.71H570.25l.45-2.71q11.06,0,16.26-4.06,4.29-3.39,5-22.13.45-7.46.46-22.13V194.16q0-25.07-1.36-33.19T587,150.81Q581.76,147,570.7,147l-.45-2.71h52.38q56.89,0,56.9,38.39A36.81,36.81,0,0,1,667.9,210.3a46.77,46.77,0,0,1-28.11,13Q656.28,233,670.27,259q5.41,10.16,11.52,19.42Q695.1,299.6,716.1,299.6l.46,2.71ZM608,149.46v69.31h14.22q17.16,0,28.45-8.8t11.29-26.19q0-34.32-39.29-34.32Z" transform="translate(-26.25 -81.81)"/><path class="cls-1" d="M817.37,298.25q3.5-1.37,3.5-7t-12-38.39H740q-9.72,28.68-9.71,36t3.72,9c2.49,1.13,7,1.69,13.44,1.69l.45,2.71h-50.8l.45-2.71a36.54,36.54,0,0,0,10.27-1.13q3.74-1.12,8.13-6t8.47-14.11q4.06-9.25,9.71-26l20.09-58q10.61-30.7,10.61-37.26t-3.16-8.46q-3.16-1.92-12.19-1.92l-.45-2.49h37.25l40,108.15q10.17,26.88,13.66,34.1c2.34,4.82,4.55,7.9,6.66,9.25q5.65,3.84,14.23,3.84l.45,2.71H804.83l.46-2.71Q813.87,299.6,817.37,298.25ZM773.68,156.46l-31.84,91h65.25Z" transform="translate(-26.25 -81.81)"/><path class="cls-1" d="M882.39,287.86a34.55,34.55,0,0,0,26.31,11.52q15.57,0,25.51-7.57T944.14,268q0-14.67-15.58-26.19A171.72,171.72,0,0,0,913.44,232q-8.36-4.86-16.71-10a133.79,133.79,0,0,1-15.13-10.84Q866,198,866,180.5t12.76-27.88q12.75-10.38,33.87-10.39a84.65,84.65,0,0,1,39.17,9.26q0,11.3-3.39,38.83l-3.38-.9q0-21.22-10.39-31.72t-23.82-10.5q-13.44,0-21.56,7.79a24.66,24.66,0,0,0-8.13,18.4,29.09,29.09,0,0,0,5.76,18.17,47.43,47.43,0,0,0,14.45,12.54q8.68,5,18.85,11t18.85,11.74a48.24,48.24,0,0,1,14.45,15,38.52,38.52,0,0,1,5.76,20.77q0,20.78-14.79,31.39t-35.56,10.61A82.35,82.35,0,0,1,885.33,301q-12.09-3.61-19.76-10.62a310.85,310.85,0,0,1,2.71-36.57l3.39.68Q871.67,276.35,882.39,287.86Z" transform="translate(-26.25 -81.81)"/><path class="cls-1" d="M1096.77,302.31H983l.45-2.71q11.28,0,16.48-4.29,5.64-4.74,5.64-44v-56q0-24.15-1.46-33.08T999.91,151q-5.19-4.29-16.48-4.29l-.45-2.49h105.44v32.52l-2.71-.46q0-15.12-15.92-21t-48.66-5.87v71.12q21.67,0,31.16-2.26t12.19-6.89q2.71-4.62,2.71-15.46l2.49-.45v54.86l-2.49-.45q0-11.06-2.71-15.58t-12.19-6.66q-9.48-2.15-31.16-2.15v29.13q0,23.94,1.7,31.84t7.56,10.61q63.67,0,63.67-27.1l2.71-.45Z" transform="translate(-26.25 -81.81)"/><path class="cls-1" d="M1156.83,154.08a25.15,25.15,0,0,0,.56,6.1c.38,1.43.68,2.6.91,3.5s.56,2.15,1,3.73.87,2.93,1.24,4.06.94,2.75,1.7,4.85,1.39,3.84,1.92,5.2,1.27,3.38,2.25,6.09l2.37,6.55,35.23,96,33.41-96q9.93-28.66,9.94-35.9t-3.84-9.26q-3.84-2-13.32-2l-.45-2.71h55.31l-.45,2.71a56,56,0,0,0-13,1.13q-4.41,1.14-9.26,6.1t-8.92,14q-4.07,9-9.93,26L1205.6,303.44h-14.23l-40-109.28q-12.65-33.87-17.84-40a20,20,0,0,0-5.53-4.52,17.22,17.22,0,0,0-6.77-2.37c-2.19-.22-5.16-.34-8.92-.34l-.45-2.71h61l-.45,2.71q-8.6,0-12.08,1.58A5.6,5.6,0,0,0,1156.83,154.08Z" transform="translate(-26.25 -81.81)"/><path class="cls-1" d="M266.87,351.25v11.86h-2.33V334.58h9.82q4.49,0,6.95,2.28a8.69,8.69,0,0,1,0,12.12c-1.64,1.52-4,2.27-6.95,2.27Zm0-2h7.49a7.13,7.13,0,0,0,5.3-1.8,6.16,6.16,0,0,0,1.77-4.52,6.25,6.25,0,0,0-1.76-4.55,7.1,7.1,0,0,0-5.31-1.81h-7.49Z" transform="translate(-26.25 -81.81)"/><path class="cls-1" d="M312.36,350.22v12.89H310V334.6h9.66c3.05,0,5.4.67,7,2a7.14,7.14,0,0,1,2.45,5.87,6.67,6.67,0,0,1-1.31,4.07,7.41,7.41,0,0,1-3.7,2.62,6.22,6.22,0,0,1,3.81,2.38,7.46,7.46,0,0,1,1.16,4.3v2.69a8.43,8.43,0,0,0,.32,2.39,3.67,3.67,0,0,0,1,1.72v.47H328.1a3.82,3.82,0,0,1-1-2,11.49,11.49,0,0,1-.3-2.64v-2.61a5.27,5.27,0,0,0-1.69-4.14,6.82,6.82,0,0,0-4.74-1.52Zm0-2h7q3.87,0,5.65-1.56a5.3,5.3,0,0,0,1.78-4.21,5.42,5.42,0,0,0-1.77-4.34,8.09,8.09,0,0,0-5.36-1.52h-7.33Z" transform="translate(-26.25 -81.81)"/><path class="cls-1" d="M378.05,351.18a12.94,12.94,0,0,1-3,8.93,10.31,10.31,0,0,1-8.12,3.41,10.09,10.09,0,0,1-8-3.41,13.06,13.06,0,0,1-3-8.93v-4.65a13.14,13.14,0,0,1,3-8.94,10.08,10.08,0,0,1,8-3.43,10.34,10.34,0,0,1,8.13,3.43,13,13,0,0,1,3,8.94Zm-2.33-4.67a11.26,11.26,0,0,0-2.35-7.46,8,8,0,0,0-6.49-2.83,7.67,7.67,0,0,0-6.35,2.83,11.51,11.51,0,0,0-2.28,7.46v4.69a11.56,11.56,0,0,0,2.29,7.5,7.72,7.72,0,0,0,6.36,2.82,7.92,7.92,0,0,0,6.49-2.81,11.43,11.43,0,0,0,2.33-7.51Z" transform="translate(-26.25 -81.81)"/><path class="cls-1" d="M421.14,349.73H407.27v13.38h-2.34V334.58h18.21v2H407.27v11.15h13.87Z" transform="translate(-26.25 -81.81)"/><path class="cls-1" d="M464.86,349.29H451.12v11.82h15.74v2H448.79V334.58h18v2H451.12V347.3h13.74Z" transform="translate(-26.25 -81.81)"/><path class="cls-1" d="M509,356.1a4.73,4.73,0,0,0-1.75-3.8,15.89,15.89,0,0,0-6.07-2.61,19.38,19.38,0,0,1-7.1-3.06,6.11,6.11,0,0,1-2.41-5.08,6.4,6.4,0,0,1,2.7-5.33,11.08,11.08,0,0,1,6.92-2.06,10.21,10.21,0,0,1,7.12,2.45,7.56,7.56,0,0,1,2.63,6l-.06.12h-2.16a6.06,6.06,0,0,0-2-4.7,7.85,7.85,0,0,0-5.5-1.85,8.44,8.44,0,0,0-5.36,1.53,4.7,4.7,0,0,0-1.93,3.8,4.45,4.45,0,0,0,1.79,3.6,16.67,16.67,0,0,0,6.15,2.54,17.83,17.83,0,0,1,7,3.17,6.54,6.54,0,0,1,2.4,5.28,6.35,6.35,0,0,1-2.79,5.42,11.86,11.86,0,0,1-7.13,2,13,13,0,0,1-7.46-2.14,6.85,6.85,0,0,1-3.08-6.26l0-.12H493a5.45,5.45,0,0,0,2.49,4.92,10.57,10.57,0,0,0,5.86,1.6,9.25,9.25,0,0,0,5.48-1.48A4.61,4.61,0,0,0,509,356.1Z" transform="translate(-26.25 -81.81)"/><path class="cls-1" d="M553.8,356.1a4.76,4.76,0,0,0-1.75-3.8,15.89,15.89,0,0,0-6.07-2.61,19.38,19.38,0,0,1-7.1-3.06,6.11,6.11,0,0,1-2.41-5.08,6.42,6.42,0,0,1,2.69-5.33,11.13,11.13,0,0,1,6.93-2.06,10.23,10.23,0,0,1,7.12,2.45,7.52,7.52,0,0,1,2.62,6l-.06.12h-2.15a6.06,6.06,0,0,0-2-4.7,7.85,7.85,0,0,0-5.5-1.85,8.44,8.44,0,0,0-5.36,1.53,4.7,4.7,0,0,0-1.93,3.8,4.45,4.45,0,0,0,1.79,3.6,16.59,16.59,0,0,0,6.15,2.54,17.83,17.83,0,0,1,7,3.17,6.54,6.54,0,0,1,2.4,5.28,6.33,6.33,0,0,1-2.8,5.42,11.81,11.81,0,0,1-7.12,2,13,13,0,0,1-7.46-2.14,6.85,6.85,0,0,1-3.08-6.26l0-.12h2.16a5.45,5.45,0,0,0,2.49,4.92,10.57,10.57,0,0,0,5.86,1.6,9.25,9.25,0,0,0,5.48-1.48A4.61,4.61,0,0,0,553.8,356.1Z" transform="translate(-26.25 -81.81)"/><path class="cls-1" d="M585.17,363.11h-2.35V334.58h2.35Z" transform="translate(-26.25 -81.81)"/><path class="cls-1" d="M634.71,351.18a12.94,12.94,0,0,1-3,8.93,10.29,10.29,0,0,1-8.12,3.41,10.1,10.1,0,0,1-8-3.41,13.06,13.06,0,0,1-3-8.93v-4.65a13.19,13.19,0,0,1,3-8.94,10.08,10.08,0,0,1,8-3.43,10.33,10.33,0,0,1,8.13,3.43,13,13,0,0,1,3,8.94Zm-2.33-4.67a11.31,11.31,0,0,0-2.34-7.46,8,8,0,0,0-6.5-2.83,7.67,7.67,0,0,0-6.35,2.83,11.51,11.51,0,0,0-2.27,7.46v4.69a11.61,11.61,0,0,0,2.28,7.5,7.72,7.72,0,0,0,6.36,2.82,8,8,0,0,0,6.5-2.81,11.48,11.48,0,0,0,2.32-7.51Z" transform="translate(-26.25 -81.81)"/><path class="cls-1" d="M682.61,363.11h-2.34l-16.2-24.54-.12,0v24.52H661.6V334.58H664l16.21,24.5.11,0V334.58h2.34Z" transform="translate(-26.25 -81.81)"/><path class="cls-1" d="M726.48,355.16H713.41l-2.94,7.95H708l10.84-28.53h2.21l10.76,28.53h-2.43Zm-12.28-2.1h11.52L720,337.61h-.11Z" transform="translate(-26.25 -81.81)"/><path class="cls-1" d="M759.29,361.11H773.4v2H756.94V334.58h2.35Z" transform="translate(-26.25 -81.81)"/><path class="cls-1" d="M829.27,363.11V334.58h8.29a11.57,11.57,0,0,1,8.64,3.48,12.31,12.31,0,0,1,3.41,9v3.67a12.24,12.24,0,0,1-3.41,8.95,11.57,11.57,0,0,1-8.64,3.47Zm2.33-26.53v24.53h6a9.09,9.09,0,0,0,7-2.95,10.63,10.63,0,0,0,2.73-7.49V347a10.53,10.53,0,0,0-2.74-7.42,9.08,9.08,0,0,0-7-2.95Z" transform="translate(-26.25 -81.81)"/><path class="cls-1" d="M892.39,349.29H878.65v11.82h15.74v2H876.32V334.58h18v2H878.65V347.3h13.74Z" transform="translate(-26.25 -81.81)"/><path class="cls-1" d="M941.17,363.11h-2.33l-16.21-24.54-.12,0v24.52h-2.35V334.58h2.35l16.21,24.5.12,0V334.58h2.33Z" transform="translate(-26.25 -81.81)"/><path class="cls-1" d="M987.93,336.58h-9.82v26.53h-2.35V336.58h-9.82v-2h22Z" transform="translate(-26.25 -81.81)"/><path class="cls-1" d="M1016.15,363.11h-2.36V334.58h2.36Z" transform="translate(-26.25 -81.81)"/><path class="cls-1" d="M1061.18,356.1a4.75,4.75,0,0,0-1.74-3.8,16,16,0,0,0-6.08-2.61,19.33,19.33,0,0,1-7.09-3.06,6.11,6.11,0,0,1-2.41-5.08,6.39,6.39,0,0,1,2.69-5.33,11.13,11.13,0,0,1,6.93-2.06,10.19,10.19,0,0,1,7.11,2.45,7.53,7.53,0,0,1,2.63,6l-.06.12H1061a6,6,0,0,0-2-4.7,7.89,7.89,0,0,0-5.5-1.85,8.42,8.42,0,0,0-5.36,1.53,4.67,4.67,0,0,0-1.93,3.8,4.44,4.44,0,0,0,1.78,3.6,16.67,16.67,0,0,0,6.15,2.54,17.76,17.76,0,0,1,7,3.17,6.54,6.54,0,0,1,2.4,5.28,6.35,6.35,0,0,1-2.79,5.42,11.83,11.83,0,0,1-7.12,2,13,13,0,0,1-7.46-2.14,6.86,6.86,0,0,1-3.09-6.26l0-.12h2.16a5.45,5.45,0,0,0,2.49,4.92,10.54,10.54,0,0,0,5.86,1.6,9.22,9.22,0,0,0,5.47-1.48A4.59,4.59,0,0,0,1061.18,356.1Z" transform="translate(-26.25 -81.81)"/><path class="cls-1" d="M1108.82,336.58H1099v26.53h-2.35V336.58h-9.82v-2h22Z" transform="translate(-26.25 -81.81)"/><path class="cls-1" d="M1136.45,350.22v12.89h-2.33V334.6h9.66q4.59,0,7,2a7.17,7.17,0,0,1,2.45,5.87,6.68,6.68,0,0,1-1.32,4.07,7.41,7.41,0,0,1-3.7,2.62,6.22,6.22,0,0,1,3.81,2.38,7.46,7.46,0,0,1,1.17,4.3v2.69a8.44,8.44,0,0,0,.31,2.39,3.75,3.75,0,0,0,1,1.72v.47h-2.39a4,4,0,0,1-1-2,12.07,12.07,0,0,1-.29-2.64v-2.61a5.27,5.27,0,0,0-1.7-4.14,6.81,6.81,0,0,0-4.73-1.52Zm0-2h7q3.85,0,5.64-1.56a5.31,5.31,0,0,0,1.79-4.21,5.39,5.39,0,0,0-1.78-4.34,8.09,8.09,0,0,0-5.36-1.52h-7.33Z" transform="translate(-26.25 -81.81)"/><path class="cls-1" d="M1188.78,350.43l8.84-15.85h2.72l-10.41,18.11v10.42h-2.33V352.55l-10.33-18H1180Z" transform="translate(-26.25 -81.81)"/><path class="cls-1" d="M103.36,85.67A72.25,72.25,0,0,0,74.81,82C65.84,82.62,50,83.72,38,95.7a38.76,38.76,0,0,0-11.06,19.63c-1.5,7.34-.21,13.17,1,18.25,3.14,13.52,10,23,17.21,33,2,2.79,9.63,13.18,14.3,20.48a82.48,82.48,0,0,1,4.85,8.66c1.31,2.71,2.16,4.84,2.53,5.79.44,1.14,1.36,3.6,2.31,7a122.54,122.54,0,0,1,3.62,19.06,27.35,27.35,0,0,0,.61,3.88v0c.17.82.32,1.39.33,1.44.17.8,1.76,3.39,5.21,5.84l.24.17a23.66,23.66,0,0,1,4.51,4.34,25.17,25.17,0,0,1,5.2,12.45c1.32-5.51.68-8.63-.24-10.49-.18-.35-.52-1-1-2.06a58.91,58.91,0,0,1-2.37-5.87l-.12-.08c-2.47-12.06-3.3-16.85-3.44-18.47,0-.23-.13-1.56-.4-3.33a61,61,0,0,0-1.31-6.29,146.43,146.43,0,0,0-4.26-14.6,92.18,92.18,0,0,0-4.71-11.11c-2.28-4.5-3.47-5.87-6.56-11.11-1.68-2.84-4.09-7.13-6.74-12.62a87.52,87.52,0,0,1-5.26-12.56c-.49-1.49-.89-2.78-1.24-4.26,0,0-.22-.91-.4-1.87a49,49,0,0,1-.84-14c.58-3.44,2-9.54,5.72-14.47a50,50,0,0,1,4.46-5A51.63,51.63,0,0,1,65,103.28a68.15,68.15,0,0,1,8.79-5,71.15,71.15,0,0,1,29.29-6.73,46.35,46.35,0,0,1,16,3.37,52.74,52.74,0,0,1,7.41,3.87C126.58,98.63,116.88,90.4,103.36,85.67Z" transform="translate(-26.25 -81.81)"/><path class="cls-1" d="M108.19,125.56a35.14,35.14,0,0,0,14.47.92s1.11-.17,2.28-.44c9.12-2.08,19.05-10,20.84-11.46a198.51,198.51,0,0,1,24.84-16.46c6.06-3.35,11.11-5.62,17.45-6.8,5.33-1,9.93-1.78,14.9.67.87.42,7.81,4.07,9.81,11.87,2.61,10.23-5.83,20-6.36,19.77-.23-.1,1-2.07.52-4.91-.56-3.43-3.16-5.62-4.53-6.78a18.78,18.78,0,0,0-9.12-4,27.2,27.2,0,0,0-10.43.13,109.79,109.79,0,0,0-23.1,7.4c-14.56,6.4-13.83,7.32-21.8,9.89-8.17,2.64-14.05,3.31-19.83,2.73A29.61,29.61,0,0,1,108.19,125.56Z" transform="translate(-26.25 -81.81)"/><path class="cls-1" d="M208.26,130.09c-2.12,15.49-7.24,24.83-11.68,30.56-2.4,3.11-6.37,7.44-10.33,14.93a74.21,74.21,0,0,0-5.6,13.88,58.41,58.41,0,0,0-2.07,11.44c-.34,3.95-.44,7.06-.45,9.6,0,7-.08,10.21-.28,11.88a17.76,17.76,0,0,1,.19,6.29c5-10.15,7-10,7.7-15.49.49-4,.29-9.65,1.1-14.44.34-2,.78-4.16,1.36-6.39,1-3.81,1.83-5.78,11.37-25.46C205.81,154,208.28,149,209,141.1A30.66,30.66,0,0,0,208.26,130.09Z" transform="translate(-26.25 -81.81)"/><path class="cls-1" d="M101.47,244.08l.86.37c.57.23,1.41.54,2.47,1l1.78.61,2.11.63c1.53.4,3.26.81,5.16,1.14,1,.15,1.94.35,3,.43l1.58.18c.53.06,1.07.06,1.62.1l1.67.09,1.72,0c1.15,0,2.33-.09,3.52-.18a48.11,48.11,0,0,0,7.27-1.2c1.23-.26,2.42-.71,3.64-1.06s2.37-.92,3.56-1.37c.28-.12.63-.24.86-.35l.88-.42,1.75-.85c1.15-.58,2.19-1.25,3.28-1.86s2.09-1.37,3.11-2.08,2-1.44,2.88-2.23,1.83-1.54,2.66-2.35l1.25-1.17,1.17-1.21c1.54-1.59,2.88-3.2,4.09-4.71s2.24-3,3.14-4.26,1.61-2.49,2.18-3.47c1.16-1.95,1.76-3.12,1.76-3.12l-.34.88c-.24.56-.57,1.4-1.07,2.43s-1.13,2.27-1.9,3.67l-1.28,2.2c-.49.75-1,1.55-1.56,2.36a54.39,54.39,0,0,1-3.92,5l-1.14,1.3L158,235.79c-.81.88-1.75,1.67-2.66,2.51s-1.94,1.58-2.93,2.39-2.1,1.49-3.18,2.22-2.28,1.39-3.44,2l-1.75.87-.87.43c-.36.18-.63.27-1,.4-1.24.46-2.45,1-3.72,1.39s-2.52.82-3.81,1.07a45.08,45.08,0,0,1-7.59,1.09,34.6,34.6,0,0,1-3.66.06l-1.77-.06-1.72-.17a32.88,32.88,0,0,1-3.28-.44c-1.06-.15-2.06-.41-3-.63a45.7,45.7,0,0,1-5.15-1.56l-2.09-.82-1.73-.76c-1-.49-1.83-.92-2.36-1.22Z" transform="translate(-26.25 -81.81)"/></svg>