<svg id="Layer_1" data-name="Layer 1" xmlns="http://www.w3.org/2000/svg" viewBox="0 0 85.62 157.87"><defs><style>.cls-1{fill:#fff;}</style></defs><title>logo-karasev-mini-white</title><path class="cls-1" d="M564.78,605.94a5,5,0,0,0-1-3.18l-1.89-1.36-.88-.65a21.56,21.56,0,0,1-.67,3.09,18,18,0,0,1-3.27,6.62,20.3,20.3,0,0,1-5,4.25l-.38.24a28.63,28.63,0,0,1-13.28,3.88,32.29,32.29,0,0,1-17.72-4.55l-.44-.21-.45-.21c-1.12-.55-1.75-.92-1.76-.9a25.92,25.92,0,0,0,6.19,3.58,35.33,35.33,0,0,0,16.08,3l.47,0a36.46,36.46,0,0,0,11.7-2.71C559.89,613.27,564.72,609,564.78,605.94Z" transform="translate(-489.28 -527.18)"/><path class="cls-1" d="M559.63,624.11a4.63,4.63,0,0,0-.57-2.87c-.49-.41-1-.84-1.48-1.28l-.68-.61a20.23,20.23,0,0,1-.79,2.71,16.81,16.81,0,0,1-3.21,5.72,17.72,17.72,0,0,1-4.47,3.56l-.33.19a23.39,23.39,0,0,1-11.34,2.87,25,25,0,0,1-14.4-4.79l-.35-.21-.36-.21c-.89-.53-1.39-.88-1.4-.86a20.84,20.84,0,0,0,4.89,3.44,27.45,27.45,0,0,0,13.15,3.32h.39a29.65,29.65,0,0,0,9.94-1.91C555,630.4,559.34,626.85,559.63,624.11Z" transform="translate(-489.28 -527.18)"/><path class="cls-1" d="M561.29,637.56a4.5,4.5,0,0,0-.54-2.92l-1.55-1.39-.71-.67a19.46,19.46,0,0,1-.9,2.68A16.06,16.06,0,0,1,554,640.8a18,18,0,0,1-4.86,3.28l-.36.17a25.61,25.61,0,0,1-12.17,2.13,28.86,28.86,0,0,1-15.27-5.8l-.37-.23-.38-.23c-.93-.59-1.46-1-1.47-1a22.67,22.67,0,0,0,5.14,3.79,31.6,31.6,0,0,0,14,4.23l.42,0a32.63,32.63,0,0,0,10.65-1.25C556.23,643.58,560.93,640.3,561.29,637.56Z" transform="translate(-489.28 -527.18)"/><path class="cls-1" d="M557.43,653a6.66,6.66,0,0,0,0-1.66,6.53,6.53,0,0,0-.17-.72,5,5,0,0,0-.49-.83,4.31,4.31,0,0,0-.55-.64,3.49,3.49,0,0,0-1.56-.79,9.4,9.4,0,0,1-.32,2.78,10.5,10.5,0,0,1-2.94,4.7,15.1,15.1,0,0,1-4,2.81l-.3.15a20.29,20.29,0,0,1-9.86,1.93A22.2,22.2,0,0,1,525,656l-.3-.19-.3-.19c-.75-.49-1.17-.81-1.18-.8a18,18,0,0,0,4.11,3.12,24.35,24.35,0,0,0,11.25,3.37h.34a25.79,25.79,0,0,0,8.62-1.18,27.49,27.49,0,0,0,7.86-4.19C555.51,655.87,557.25,654.37,557.43,653Z" transform="translate(-489.28 -527.18)"/><path class="cls-1" d="M554.89,668.25a3.09,3.09,0,0,0,.45-2.49,2,2,0,0,0-.29-.55l-.27-.32a7.25,7.25,0,0,0-.59-.62,2.82,2.82,0,0,0-1.14-.55,9.76,9.76,0,0,1-.23,1.47,9.28,9.28,0,0,1-2.34,4.14,10.26,10.26,0,0,1-3.48,2.43l-.08,0-.18.09c-3.55,1.68-8.37,1.34-8.37,1.34a20.13,20.13,0,0,1-10.22-4.07l-.24-.17-.24-.18c-.58-.57-1.24-1.2-1.23-1.21a18.92,18.92,0,0,0,3.59,3.31,18.27,18.27,0,0,0,9.34,3.15h.29a21.06,21.06,0,0,0,7.35-.93,39.71,39.71,0,0,0,4.9-2.34A6.89,6.89,0,0,0,554.89,668.25Z" transform="translate(-489.28 -527.18)"/><path class="cls-1" d="M528.48,678.76a14,14,0,0,0,5.61,2.76,19.34,19.34,0,0,0,6,.5,18.29,18.29,0,0,0,5.82-1.31,21,21,0,0,0,5.4-3.34,10.85,10.85,0,0,1-4.27,5.41,13.65,13.65,0,0,1-6.75,2.23,14.1,14.1,0,0,1-7-1.28,11.44,11.44,0,0,1-2.92-2A8,8,0,0,1,528.48,678.76Z" transform="translate(-489.28 -527.18)"/><path class="cls-1" d="M524.58,529a33,33,0,0,0-13.07-1.69c-4.11.29-11.35.8-16.85,6.28a17.73,17.73,0,0,0-5.07,9,18.42,18.42,0,0,0,.44,8.35c1.44,6.19,4.58,10.55,7.88,15.13.92,1.28,4.41,6,6.55,9.37a39.41,39.41,0,0,1,2.22,4c.6,1.24,1,2.22,1.15,2.65a31.61,31.61,0,0,1,1.06,3.19,57,57,0,0,1,1.66,8.72,12,12,0,0,0,.28,1.78v0c.08.37.15.63.15.66a6.4,6.4,0,0,0,2.39,2.67l.11.08a11,11,0,0,1,2.06,2,11.55,11.55,0,0,1,2.38,5.7c.61-2.52.31-3.95-.11-4.8-.08-.16-.24-.44-.47-.94a25,25,0,0,1-1.08-2.69l-.06,0c-1.13-5.52-1.51-7.71-1.57-8.45,0-.11-.06-.72-.19-1.53a26.29,26.29,0,0,0-.6-2.87,68.92,68.92,0,0,0-1.94-6.69,43.59,43.59,0,0,0-2.16-5.08c-1.05-2.06-1.59-2.69-3-5.09-.76-1.3-1.87-3.26-3.08-5.78a39.84,39.84,0,0,1-2.41-5.75c-.22-.68-.41-1.27-.57-2,0,0-.1-.41-.18-.85a22.3,22.3,0,0,1-.38-6.4,15.5,15.5,0,0,1,2.62-6.62,22.27,22.27,0,0,1,2-2.3,25.34,25.34,0,0,1,2.25-2,30.79,30.79,0,0,1,4-2.29,32.68,32.68,0,0,1,13.41-3.09,21.4,21.4,0,0,1,7.32,1.55,23.44,23.44,0,0,1,3.39,1.77A33.52,33.52,0,0,0,524.58,529Z" transform="translate(-489.28 -527.18)"/><path class="cls-1" d="M526.79,547.21a15.92,15.92,0,0,0,6.62.42s.51-.08,1.05-.2c4.17-.95,8.72-4.59,9.54-5.25a91.09,91.09,0,0,1,11.37-7.53,25.37,25.37,0,0,1,8-3.12c2.44-.45,4.54-.81,6.82.31a8.91,8.91,0,0,1,4.49,5.44c1.2,4.68-2.67,9.16-2.91,9.05a6.19,6.19,0,0,0,.24-2.25,5.35,5.35,0,0,0-2.08-3.11,8.63,8.63,0,0,0-4.17-1.84,12.62,12.62,0,0,0-4.78.06,50.7,50.7,0,0,0-10.57,3.39c-6.67,2.93-6.33,3.35-10,4.53a21.27,21.27,0,0,1-9.08,1.25A13.61,13.61,0,0,1,526.79,547.21Z" transform="translate(-489.28 -527.18)"/><path class="cls-1" d="M572.6,549.28c-1,7.1-3.31,11.37-5.34,14a39.91,39.91,0,0,0-4.73,6.84,34,34,0,0,0-2.57,6.35,26.24,26.24,0,0,0-.94,5.24c-.16,1.8-.21,3.23-.21,4.39,0,3.22,0,4.68-.13,5.44a8.21,8.21,0,0,1,.09,2.88c2.26-4.64,3.21-4.59,3.52-7.09.23-1.82.14-4.42.5-6.61.16-.94.36-1.91.63-2.92.45-1.75.84-2.65,5.21-11.66,2.85-5.89,4-8.18,4.31-11.81A13.86,13.86,0,0,0,572.6,549.28Z" transform="translate(-489.28 -527.18)"/><path class="cls-1" d="M523.72,601.46a28.32,28.32,0,0,0,9.19,1.64,22.48,22.48,0,0,0,8.88-1.83,25.66,25.66,0,0,0,7.6-5,38.34,38.34,0,0,0,5.89-7.32,23.5,23.5,0,0,1-8.4,11.73,22.13,22.13,0,0,1-4.31,2.46,22.76,22.76,0,0,1-4.78,1.39,21.61,21.61,0,0,1-4.95.15A19.58,19.58,0,0,1,523.72,601.46Z" transform="translate(-489.28 -527.18)"/></svg>