<?xml version="1.0" encoding="utf-8"?>
<!-- Generator: Adobe Illustrator 19.2.1, SVG Export Plug-In . SVG Version: 6.00 Build 0)  -->
<svg version="1.1" id="Layer_1" xmlns="http://www.w3.org/2000/svg" xmlns:xlink="http://www.w3.org/1999/xlink" x="0px" y="0px"
	 viewBox="0 0 1080 1080" style="enable-background:new 0 0 1080 1080;" xml:space="preserve">
<style type="text/css">
	.st0{fill:#386EB6;}
	.st1{fill:#396BB4;}
	.st2{fill:#395FAC;}
	.st3{fill:#384FA2;}
	.st4{fill:#3854A5;}
	.st5{fill:#3F5FAC;}
	.st6{fill:#212323;}
	.st7{fill:#3860AD;}
	.st8{fill:#3382C4;}
	.st9{fill:#23429B;}
</style>
<path class="st0" d="M342.3,550c0-2-1-3.2-1-3.2c-0.6-0.4-1.3-0.9-1.9-1.4c-0.3-0.2-0.6-0.4-0.9-0.6c-0.1,0.8-0.3,1.8-0.7,3.1
	c-0.5,1.6-1.2,4.1-3.3,6.6c-1.8,2.2-4,3.6-5,4.3c0,0-0.2,0.1-0.4,0.2c-3.8,2.3-8.7,3.8-13.3,3.9c-6.4,0.2-12.6-1.4-17.7-4.5
	c-0.3-0.1-0.4-0.2-0.4-0.2c-0.3-0.1-0.4-0.2-0.4-0.2c-1.1-0.5-1.7-0.9-1.8-0.9c0,0,2.4,2,6.2,3.6c7.6,3.2,13.8,3.1,16.1,3
	c0.2,0,0.4,0,0.5,0c7.2-0.6,11.7-2.7,11.7-2.7C337.4,557.3,342.3,553,342.3,550z"/>
<path class="st1" d="M337.2,568.1c0.2-1.7-0.6-2.9-0.6-2.9c-0.5-0.4-1-0.8-1.5-1.3c-0.2-0.2-0.5-0.4-0.7-0.6
	c-0.1,0.7-0.4,1.6-0.8,2.7c-0.5,1.4-1.3,3.6-3.2,5.7c-1.7,1.9-3.6,3-4.5,3.6c0,0-0.2,0.1-0.3,0.2c-3.4,1.8-7.5,3-11.3,2.9
	c-5.3-0.1-10.4-1.8-14.4-4.8c-0.2-0.1-0.4-0.2-0.4-0.2c-0.2-0.1-0.4-0.2-0.4-0.2c-0.9-0.5-1.4-0.9-1.4-0.9c0,0,1.9,1.8,4.9,3.4
	c6.1,3.2,11.3,3.4,13.2,3.3c0.2,0,0.4,0,0.4,0c6.1-0.2,9.9-1.9,9.9-1.9C332.6,574.4,336.9,570.9,337.2,568.1z"/>
<path class="st2" d="M338.8,581.6c0.2-1.7-0.5-2.9-0.5-2.9c-0.5-0.5-1-0.9-1.5-1.4c-0.2-0.2-0.5-0.4-0.7-0.7
	c-0.2,0.7-0.5,1.6-0.9,2.7c-0.6,1.4-1.5,3.5-3.6,5.5c-1.8,1.8-3.9,2.8-4.9,3.3c0,0-0.2,0.1-0.4,0.2c-3.6,1.6-8.1,2.5-12.2,2.1
	c-5.7-0.5-11.1-2.5-15.3-5.8c-0.2-0.1-0.4-0.2-0.4-0.2c-0.2-0.1-0.4-0.2-0.4-0.2c-0.9-0.6-1.5-1-1.5-1c0,0,2,2,5.1,3.8
	c6.4,3.6,12,4.1,14,4.2c0.2,0,0.4,0,0.4,0c6.5,0.2,10.6-1.2,10.6-1.2C333.8,587.6,338.5,584.3,338.8,581.6z"/>
<path class="st3" d="M335,597c0.1-0.8,0-1.7,0-1.7c-0.1-0.3-0.1-0.5-0.2-0.7c-0.1-0.2-0.3-0.5-0.5-0.8c-0.1-0.1-0.3-0.4-0.6-0.6
	c-0.2-0.2-0.7-0.6-1.6-0.8c0,0.7,0,1.7-0.3,2.8c-0.6,2.3-2,3.8-2.9,4.7c-1.5,1.5-3.2,2.4-4,2.8c0,0-0.1,0.1-0.3,0.1
	c-3,1.4-6.6,2.2-9.9,1.9c-4.6-0.3-8.9-2-12.3-4.7c-0.2-0.1-0.3-0.2-0.3-0.2c-0.2-0.1-0.3-0.2-0.3-0.2c-0.8-0.5-1.2-0.8-1.2-0.8
	c0,0,1.6,1.6,4.1,3.1c5.1,3,9.6,3.3,11.2,3.4c0.2,0,0.3,0,0.3,0c5.2,0.1,8.6-1.2,8.6-1.2c1.2-0.4,5.2-1.9,7.9-4.2
	C333.1,599.9,334.8,598.4,335,597z"/>
<path class="st4" d="M332.4,612.3c0.2-0.4,0.8-1.5,0.4-2.5c-0.1-0.2-0.2-0.4-0.3-0.5c-0.1-0.1-0.2-0.2-0.3-0.3
	c-0.1-0.1-0.4-0.4-0.6-0.6c-0.2-0.2-0.5-0.4-1.1-0.6c0,0.4-0.1,0.9-0.2,1.5c-0.5,2.2-1.8,3.6-2.3,4.1c-1.3,1.3-2.6,2.1-3.5,2.4
	c0,0,0,0-0.1,0c0,0-0.1,0-0.2,0.1c-3.5,1.7-8.4,1.3-8.4,1.3c-5.1-0.4-8.9-3.1-10.2-4.1c-0.1-0.1-0.2-0.2-0.2-0.2
	c-0.1-0.1-0.2-0.2-0.2-0.2c-0.6-0.6-1.2-1.2-1.2-1.2c0,0,1.4,1.8,3.6,3.3c3.9,2.8,8.1,3.1,9.3,3.1c0.1,0,0.3,0,0.3,0
	c4.4,0.1,7.3-0.9,7.3-0.9c2-0.8,3.7-1.7,4.9-2.3C331,614,331.8,613.3,332.4,612.3z"/>
<g>
	<path class="st3" d="M306,622.8c0,0,0.4,0.2,0.9,0.7c0.3,0.2,0.7,0.4,1.1,0.7c0.4,0.2,0.9,0.4,1.4,0.7c0.3,0.1,0.5,0.2,0.8,0.3
		c0.3,0.1,0.6,0.2,0.9,0.3c0.6,0.2,1.3,0.3,2,0.4c0.7,0.1,1.4,0.2,2.2,0.2c0.7,0,1.5,0,2.2,0c0.4,0,0.7,0,1.1-0.1
		c0.4,0,0.7-0.1,1.1-0.2c0.7-0.1,1.4-0.3,2.1-0.5c0.7-0.2,1.3-0.4,1.9-0.7c0.6-0.3,1.2-0.5,1.7-0.8c1-0.6,1.8-1.2,2.4-1.6
		c0.6-0.5,0.9-0.7,0.9-0.7s-0.1,0.4-0.5,1.1c-0.3,0.7-0.9,1.6-1.8,2.6c-0.5,0.5-1,1-1.6,1.4c-0.6,0.4-1.3,0.9-2.1,1.2
		c-0.4,0.2-0.8,0.3-1.2,0.5c-0.4,0.2-0.8,0.3-1.3,0.4c-0.4,0.1-0.9,0.2-1.3,0.3c-0.4,0.1-0.9,0.1-1.3,0.2c-0.9,0.1-1.8,0-2.7-0.1
		c-0.4,0-0.9-0.1-1.3-0.2c-0.4-0.1-0.8-0.2-1.2-0.3c-0.8-0.2-1.6-0.6-2.2-0.9c-0.3-0.2-0.7-0.4-1-0.6c-0.3-0.2-0.6-0.4-0.8-0.6
		c-0.5-0.4-1-0.9-1.3-1.3c-0.3-0.4-0.5-0.8-0.8-1.1C306.2,623.2,306,622.8,306,622.8z"/>
</g>
<g>
	<path class="st5" d="M431.2,572.1c-3.5,0-7.9-4.1-13.2-12.3c-2.3-3.4-4.6-6.9-7.1-10.3c-2.4-3.4-5.2-6.4-8.2-8.9
		c-3-2.5-6.1-3.8-9.1-3.8v12c0,10.3,0.5,16.5,1.4,18.6c0.4,0.8,1,1.6,1.9,2.2c0.8,0.6,1.7,1,2.7,1.1c1,0.1,2.3,0.2,4,0.2l0.2,1.2
		H376l0.2-1.2c3.4,0,6-0.7,7.5-2c1.7-1.4,2.6-8.2,2.6-20.2v-25.6c0-7.4-0.2-12.4-0.7-15.1c-0.4-2.7-1.1-4.4-1.9-5.1
		c-1.6-1.3-4.1-2-7.5-2l-0.2-1.1h27.8l-0.2,1.1c-1.7,0-3,0.1-4,0.2c-1,0.1-1.9,0.5-2.7,1.1c-0.8,0.6-1.4,1.3-1.8,2.2
		c-0.4,0.8-0.7,2.2-0.9,4c-0.4,3-0.6,7.9-0.6,14.7v11.8c3-0.5,6.5-2.4,10.6-5.8c4.1-3.4,7.7-7.5,10.8-12.2c3.1-4.7,4.7-8.9,4.7-12.6
		c0-1.2-0.4-2-1.1-2.6c-0.7-0.6-2.1-0.8-4-0.8l-0.2-1.1H440l-0.2,1.1c-7.2,0-12.6,2.5-16.2,7.5c-1.7,2.5-3.4,5.1-5,7.8
		c-1.6,2.7-4,5.9-7.2,9.4s-7,6.7-11.4,9.6c6.7,0.4,12.1,3,16.3,7.8c2.5,2.8,5.3,6.4,8.2,11.1c2.9,4.6,5.2,8,6.9,10
		c3.9,4.5,8.5,6.8,14,6.8l0.2,1.2H431.2z"/>
	<path class="st5" d="M494.1,570.3c1.1-0.4,1.6-1.5,1.6-3.2c0-1.7-1.8-7.6-5.5-17.6h-31.5c-3,8.8-4.4,14.2-4.4,16.5
		c0,2.2,0.6,3.6,1.7,4.1c1.1,0.5,3.2,0.8,6.1,0.8l0.2,1.2h-23.3l0.2-1.2c2,0,3.6-0.2,4.7-0.5c1.1-0.3,2.4-1.3,3.7-2.7
		c1.3-1.5,2.6-3.6,3.9-6.5c1.2-2.8,2.7-6.8,4.4-11.9l9.2-26.6c3.2-9.4,4.9-15.1,4.9-17.1c0-2-0.5-3.3-1.4-3.9
		c-1-0.6-2.8-0.9-5.6-0.9l-0.2-1.1h17.1l18.3,49.5c3.1,8.2,5.2,13.4,6.3,15.6c1.1,2.2,2.1,3.6,3,4.2c1.7,1.2,3.9,1.8,6.5,1.8
		l0.2,1.2h-25.8l0.2-1.2C491.2,570.9,493,570.7,494.1,570.3z M474.1,505.4L459.5,547h29.9L474.1,505.4z"/>
	<path class="st5" d="M568.5,572.1c-1.7,0-3.4-0.9-5.1-2.6s-3.2-3.9-4.5-6.6c-1.3-2.6-2.9-5.5-4.7-8.5c-1.8-3.1-3.6-5.9-5.4-8.6
		c-1.8-2.7-4.1-5-6.8-6.8c-2.8-1.9-5.7-2.9-8.8-3v12.8c0,7.4,0.2,12.5,0.7,15.1c0.4,2.7,1.1,4.3,1.9,5c1.7,1.3,4.2,2,7.6,2l0.2,1.2
		h-27.7l0.2-1.2c3.4,0,5.9-0.6,7.4-1.9c1.3-1,2.1-4.4,2.3-10.1c0.1-2.3,0.2-5.6,0.2-10.1v-26.1c0-7.6-0.2-12.7-0.6-15.2
		c-0.4-2.5-1-4-1.9-4.7c-1.6-1.2-4.1-1.8-7.4-1.8l-0.2-1.2h24c17.4,0,26,5.9,26,17.6c0,5-1.8,9.3-5.3,12.7
		c-3.5,3.4-7.8,5.4-12.9,5.9c5,3,9.7,8.4,14,16.3c1.7,3.1,3.4,6.1,5.3,8.9c4.1,6.5,9.3,9.7,15.7,9.7l0.2,1.2H568.5z M533.1,502.2
		v31.7h6.5c5.2,0,9.6-1.3,13-4c3.4-2.7,5.2-6.7,5.2-12c0-10.5-6-15.7-18-15.7H533.1z"/>
	<path class="st5" d="M629,570.3c1.1-0.4,1.6-1.5,1.6-3.2c0-1.7-1.8-7.6-5.5-17.6h-31.5c-3,8.8-4.4,14.2-4.4,16.5
		c0,2.2,0.6,3.6,1.7,4.1c1.1,0.5,3.2,0.8,6.2,0.8l0.2,1.2h-23.3l0.2-1.2c2,0,3.6-0.2,4.7-0.5c1.1-0.3,2.4-1.3,3.7-2.7
		c1.3-1.5,2.6-3.6,3.9-6.5c1.2-2.8,2.7-6.8,4.4-11.9l9.2-26.6c3.2-9.4,4.9-15.1,4.9-17.1c0-2-0.5-3.3-1.4-3.9
		c-1-0.6-2.8-0.9-5.6-0.9l-0.2-1.1h17.1l18.3,49.5c3.1,8.2,5.2,13.4,6.3,15.6c1.1,2.2,2.1,3.6,3,4.2c1.7,1.2,3.9,1.8,6.5,1.8
		l0.2,1.2h-25.8l0.2-1.2C626.1,570.9,627.9,570.7,629,570.3z M609,505.4L594.4,547h29.9L609,505.4z"/>
	<path class="st5" d="M658.7,565.5c3.3,3.5,7.3,5.3,12,5.3c4.8,0,8.6-1.2,11.7-3.5c3-2.3,4.5-5.9,4.5-10.9c0-4.5-2.4-8.5-7.1-12
		c-2.1-1.5-4.4-3-6.9-4.5c-2.5-1.5-5.1-3-7.6-4.6c-2.5-1.6-4.9-3.2-6.9-5c-4.8-4-7.1-8.7-7.1-14c0-5.3,1.9-9.6,5.8-12.8
		c3.9-3.2,9.1-4.8,15.5-4.8c6.4,0,12.4,1.4,17.9,4.2c0,3.4-0.5,9.4-1.5,17.8l-1.6-0.4c0-6.5-1.6-11.3-4.8-14.5
		c-3.2-3.2-6.8-4.8-10.9-4.8c-4.1,0-7.4,1.2-9.9,3.6c-2.5,2.4-3.7,5.2-3.7,8.4c0,3.2,0.9,6,2.6,8.3c1.8,2.3,4,4.2,6.6,5.7
		c2.7,1.5,5.5,3.2,8.6,5c3.1,1.8,6,3.6,8.6,5.4c2.7,1.8,4.9,4,6.6,6.9c1.8,2.8,2.6,6,2.6,9.5c0,6.3-2.3,11.1-6.8,14.4
		c-4.5,3.2-9.9,4.9-16.3,4.9c-3.5,0-7.1-0.6-10.8-1.7c-3.7-1.1-6.7-2.7-9-4.9c0-4.4,0.4-10,1.2-16.7l1.6,0.3
		C653.8,556.9,655.5,562,658.7,565.5z"/>
	<path class="st5" d="M756.9,572.1h-52.1l0.2-1.2c3.4,0,6-0.7,7.5-2c1.7-1.4,2.6-8.2,2.6-20.2v-25.6c0-7.4-0.2-12.4-0.7-15.1
		c-0.4-2.7-1.1-4.4-1.9-5.1c-1.6-1.3-4.1-2-7.5-2l-0.2-1.1h48.3v14.9l-1.2-0.2c0-4.6-2.4-7.8-7.3-9.6c-4.9-1.8-12.3-2.7-22.3-2.7
		v32.6c6.6,0,11.4-0.3,14.3-1c2.9-0.7,4.8-1.7,5.6-3.2c0.8-1.4,1.2-3.8,1.2-7.1l1.1-0.2v25.1l-1.1-0.2c0-3.4-0.4-5.8-1.2-7.1
		c-0.8-1.4-2.7-2.4-5.6-3c-2.9-0.7-7.6-1-14.3-1v13.3c0,7.3,0.3,12.2,0.8,14.6c0.5,2.4,1.7,4,3.5,4.9c19.4,0,29.1-4.1,29.1-12.4
		l1.2-0.2V572.1z"/>
	<path class="st5" d="M784.4,504.3c0,1.2,0.1,2.1,0.3,2.8c0.2,0.7,0.3,1.2,0.4,1.6s0.3,1,0.5,1.7c0.2,0.7,0.4,1.3,0.6,1.9
		c0.2,0.5,0.4,1.3,0.8,2.2c0.3,1,0.6,1.8,0.9,2.4c0.2,0.6,0.6,1.6,1,2.8c0.4,1.2,0.8,2.2,1.1,3l16.1,43.9l15.3-43.9
		c3-8.8,4.5-14.2,4.5-16.4c0-2.2-0.6-3.6-1.8-4.2c-1.2-0.6-3.2-0.9-6.1-0.9l-0.2-1.2h25.3l-0.2,1.2c-2.6,0-4.6,0.2-5.9,0.5
		c-1.3,0.3-2.8,1.3-4.2,2.8c-1.5,1.5-2.8,3.7-4.1,6.4c-1.2,2.8-2.8,6.7-4.5,11.9l-17.4,50h-6.5l-18.3-50
		c-3.9-10.3-6.6-16.4-8.2-18.3c-0.6-0.8-1.5-1.4-2.5-2.1c-1.1-0.6-2.1-1-3.1-1.1c-1-0.1-2.4-0.2-4.1-0.2l-0.2-1.2h27.9l-0.2,1.2
		c-2.6,0-4.5,0.2-5.5,0.7C784.9,502.2,784.4,503.1,784.4,504.3z"/>
</g>
<g>
	<g>
		<path class="st6" d="M377,594.5v5.4h-1.1v-13.1h4.5c1.4,0,2.4,0.3,3.2,1c0.8,0.7,1.1,1.6,1.1,2.8c0,1.2-0.4,2.1-1.1,2.8
			c-0.8,0.7-1.8,1-3.2,1H377z M377,593.6h3.4c1.1,0,1.9-0.3,2.4-0.8c0.5-0.5,0.8-1.2,0.8-2.1c0-0.8-0.3-1.5-0.8-2.1
			c-0.5-0.6-1.3-0.8-2.4-0.8H377V593.6z"/>
		<path class="st6" d="M397.8,594.1v5.9h-1.1v-13.1h4.4c1.4,0,2.5,0.3,3.2,0.9c0.7,0.6,1.1,1.5,1.1,2.7c0,0.7-0.2,1.3-0.6,1.9
			c-0.4,0.5-1,0.9-1.7,1.2c0.8,0.2,1.4,0.6,1.7,1.1c0.4,0.5,0.5,1.2,0.5,2v1.2c0,0.4,0,0.8,0.1,1.1s0.3,0.6,0.5,0.8v0.2H405
			c-0.2-0.2-0.4-0.5-0.5-0.9c-0.1-0.4-0.1-0.8-0.1-1.2v-1.2c0-0.8-0.3-1.4-0.8-1.9c-0.5-0.5-1.2-0.7-2.2-0.7H397.8z M397.8,593.1
			h3.2c1.2,0,2-0.2,2.6-0.7c0.5-0.5,0.8-1.1,0.8-1.9c0-0.9-0.3-1.5-0.8-2c-0.5-0.5-1.4-0.7-2.5-0.7h-3.4V593.1z"/>
		<path class="st6" d="M427.9,594.5c0,1.7-0.5,3.1-1.4,4.1c-0.9,1-2.2,1.6-3.7,1.6c-1.5,0-2.8-0.5-3.7-1.6c-0.9-1-1.4-2.4-1.4-4.1
			v-2.1c0-1.7,0.5-3,1.4-4.1s2.1-1.6,3.7-1.6c1.6,0,2.8,0.5,3.7,1.6c0.9,1,1.4,2.4,1.4,4.1V594.5z M426.8,592.4
			c0-1.4-0.4-2.6-1.1-3.4c-0.7-0.9-1.7-1.3-3-1.3c-1.2,0-2.2,0.4-2.9,1.3s-1,2-1,3.4v2.1c0,1.4,0.3,2.6,1,3.4
			c0.7,0.9,1.7,1.3,2.9,1.3c1.3,0,2.3-0.4,3-1.3c0.7-0.9,1.1-2,1.1-3.4V592.4z"/>
		<path class="st6" d="M447.6,593.8h-6.4v6.1h-1.1v-13.1h8.3v0.9h-7.3v5.1h6.4V593.8z"/>
		<path class="st6" d="M467.6,593.6h-6.3v5.4h7.2v0.9h-8.3v-13.1h8.2v0.9h-7.2v4.9h6.3V593.6z"/>
		<path class="st6" d="M487.8,596.8c0-0.7-0.3-1.3-0.8-1.7s-1.5-0.8-2.8-1.2c-1.4-0.4-2.5-0.8-3.2-1.4c-0.7-0.6-1.1-1.3-1.1-2.3
			c0-1,0.4-1.8,1.2-2.4c0.8-0.6,1.9-0.9,3.2-0.9c1.3,0,2.4,0.4,3.3,1.1c0.8,0.7,1.2,1.7,1.2,2.7l0,0.1h-1c0-0.9-0.3-1.6-0.9-2.2
			s-1.5-0.8-2.5-0.8c-1,0-1.9,0.2-2.5,0.7c-0.6,0.5-0.9,1-0.9,1.7c0,0.7,0.3,1.2,0.8,1.6c0.5,0.4,1.5,0.8,2.8,1.2
			c1.4,0.4,2.5,0.8,3.2,1.5c0.7,0.6,1.1,1.4,1.1,2.4c0,1-0.4,1.9-1.3,2.5s-1.9,0.9-3.3,0.9c-1.3,0-2.4-0.3-3.4-1
			c-1-0.7-1.4-1.6-1.4-2.9l0-0.1h1c0,1,0.4,1.8,1.1,2.3c0.8,0.5,1.7,0.7,2.7,0.7c1,0,1.9-0.2,2.5-0.7
			C487.5,598.1,487.8,597.5,487.8,596.8z"/>
		<path class="st6" d="M508.3,596.8c0-0.7-0.3-1.3-0.8-1.7s-1.5-0.8-2.8-1.2c-1.4-0.4-2.5-0.8-3.2-1.4c-0.7-0.6-1.1-1.3-1.1-2.3
			c0-1,0.4-1.8,1.2-2.4c0.8-0.6,1.9-0.9,3.2-0.9c1.3,0,2.4,0.4,3.3,1.1c0.8,0.7,1.2,1.7,1.2,2.7l0,0.1h-1c0-0.9-0.3-1.6-0.9-2.2
			s-1.5-0.8-2.5-0.8c-1,0-1.9,0.2-2.5,0.7c-0.6,0.5-0.9,1-0.9,1.7c0,0.7,0.3,1.2,0.8,1.6c0.5,0.4,1.5,0.8,2.8,1.2
			c1.4,0.4,2.5,0.8,3.2,1.5c0.7,0.6,1.1,1.4,1.1,2.4c0,1-0.4,1.9-1.3,2.5s-1.9,0.9-3.3,0.9c-1.3,0-2.4-0.3-3.4-1
			c-1-0.7-1.4-1.6-1.4-2.9l0-0.1h1c0,1,0.4,1.8,1.1,2.3c0.8,0.5,1.7,0.7,2.7,0.7c1,0,1.9-0.2,2.5-0.7
			C508,598.1,508.3,597.5,508.3,596.8z"/>
		<path class="st6" d="M522.7,600h-1.1v-13.1h1.1V600z"/>
		<path class="st6" d="M545.4,594.5c0,1.7-0.5,3.1-1.4,4.1c-0.9,1-2.2,1.6-3.7,1.6c-1.5,0-2.8-0.5-3.7-1.6c-0.9-1-1.4-2.4-1.4-4.1
			v-2.1c0-1.7,0.5-3,1.4-4.1s2.1-1.6,3.7-1.6c1.6,0,2.8,0.5,3.7,1.6c0.9,1,1.4,2.4,1.4,4.1V594.5z M544.3,592.4
			c0-1.4-0.4-2.6-1.1-3.4s-1.7-1.3-3-1.3c-1.2,0-2.2,0.4-2.9,1.3c-0.7,0.9-1,2-1,3.4v2.1c0,1.4,0.3,2.6,1,3.4
			c0.7,0.9,1.7,1.3,2.9,1.3c1.3,0,2.3-0.4,3-1.3c0.7-0.9,1.1-2,1.1-3.4V592.4z"/>
		<path class="st6" d="M567.3,600h-1.1l-7.4-11.2l-0.1,0V600h-1.1v-13.1h1.1l7.4,11.2l0.1,0v-11.2h1.1V600z"/>
		<path class="st6" d="M587.4,596.3h-6L580,600h-1.1l5-13.1h1l4.9,13.1h-1.1L587.4,596.3z M581.8,595.4h5.3l-2.6-7.1h-0.1
			L581.8,595.4z"/>
		<path class="st6" d="M602.4,599.1h6.5v0.9h-7.5v-13.1h1.1V599.1z"/>
		<path class="st6" d="M634.4,600v-13.1h3.8c1.6,0,2.9,0.5,4,1.6c1,1.1,1.6,2.4,1.6,4.1v1.7c0,1.7-0.5,3-1.6,4.1
			c-1,1.1-2.4,1.6-4,1.6H634.4z M635.5,587.8v11.2h2.7c1.3,0,2.4-0.5,3.2-1.4c0.8-0.9,1.3-2,1.3-3.4v-1.7c0-1.4-0.4-2.5-1.3-3.4
			c-0.8-0.9-1.9-1.4-3.2-1.4H635.5z"/>
		<path class="st6" d="M663.3,593.6H657v5.4h7.2v0.9H656v-13.1h8.2v0.9H657v4.9h6.3V593.6z"/>
		<path class="st6" d="M685.7,600h-1.1l-7.4-11.2l-0.1,0V600H676v-13.1h1.1l7.4,11.2l0.1,0v-11.2h1.1V600z"/>
		<path class="st6" d="M707.1,587.8h-4.5V600h-1.1v-12.1H697v-0.9h10.1V587.8z"/>
		<path class="st6" d="M720,600h-1.1v-13.1h1.1V600z"/>
		<path class="st6" d="M740.6,596.8c0-0.7-0.3-1.3-0.8-1.7s-1.5-0.8-2.8-1.2c-1.4-0.4-2.5-0.8-3.2-1.4c-0.7-0.6-1.1-1.3-1.1-2.3
			c0-1,0.4-1.8,1.2-2.4c0.8-0.6,1.9-0.9,3.2-0.9c1.3,0,2.4,0.4,3.3,1.1c0.8,0.7,1.2,1.7,1.2,2.7l0,0.1h-1c0-0.9-0.3-1.6-0.9-2.2
			s-1.5-0.8-2.5-0.8c-1,0-1.9,0.2-2.5,0.7c-0.6,0.5-0.9,1-0.9,1.7c0,0.7,0.3,1.2,0.8,1.6c0.5,0.4,1.5,0.8,2.8,1.2
			c1.4,0.4,2.5,0.8,3.2,1.5c0.7,0.6,1.1,1.4,1.1,2.4c0,1-0.4,1.9-1.3,2.5s-1.9,0.9-3.3,0.9c-1.3,0-2.4-0.3-3.4-1
			c-1-0.7-1.4-1.6-1.4-2.9l0-0.1h1c0,1,0.4,1.8,1.1,2.3c0.8,0.5,1.7,0.7,2.7,0.7c1,0,1.9-0.2,2.5-0.7
			C740.3,598.1,740.6,597.5,740.6,596.8z"/>
		<path class="st6" d="M762.4,587.8h-4.5V600h-1.1v-12.1h-4.5v-0.9h10.1V587.8z"/>
		<path class="st6" d="M775.1,594.1v5.9H774v-13.1h4.4c1.4,0,2.5,0.3,3.2,0.9c0.7,0.6,1.1,1.5,1.1,2.7c0,0.7-0.2,1.3-0.6,1.9
			c-0.4,0.5-1,0.9-1.7,1.2c0.8,0.2,1.4,0.6,1.7,1.1c0.4,0.5,0.5,1.2,0.5,2v1.2c0,0.4,0,0.8,0.1,1.1s0.3,0.6,0.5,0.8v0.2h-1.1
			c-0.2-0.2-0.4-0.5-0.5-0.9s-0.1-0.8-0.1-1.2v-1.2c0-0.8-0.3-1.4-0.8-1.9c-0.5-0.5-1.2-0.7-2.2-0.7H775.1z M775.1,593.1h3.2
			c1.2,0,2-0.2,2.6-0.7c0.5-0.5,0.8-1.1,0.8-1.9c0-0.9-0.3-1.5-0.8-2c-0.5-0.5-1.4-0.7-2.5-0.7h-3.4V593.1z"/>
		<path class="st6" d="M799,594.2l4-7.3h1.2l-4.8,8.3v4.8h-1.1v-4.8l-4.7-8.2h1.2L799,594.2z"/>
	</g>
</g>
<path class="st7" d="M302.1,473c-1.7-0.6-6.6-2.1-13.1-1.7c-4.1,0.3-11.4,0.8-16.9,6.3c-1.1,1.1-4.1,4.1-5.1,9
	c-0.7,3.4-0.1,6,0.4,8.4c1.4,6.2,4.6,10.5,7.9,15.1c0.9,1.3,4.4,6,6.5,9.4c0.4,0.6,1.3,2,2.2,4c0.6,1.2,1,2.2,1.2,2.6
	c0.2,0.5,0.6,1.6,1.1,3.2c1.1,4,1.6,8.1,1.7,8.7c0,0.2,0.1,0.9,0.3,1.8c0,0,0,0,0,0c0.1,0.4,0.1,0.6,0.2,0.7
	c0.1,0.4,0.8,1.5,2.4,2.7c0.1,0,0.1,0.1,0.1,0.1c0.6,0.5,1.4,1.1,2.1,2c1.7,2.2,2.2,4.5,2.4,5.7c0.6-2.5,0.3-4-0.1-4.8
	c-0.1-0.2-0.2-0.4-0.5-0.9c-0.3-0.6-0.7-1.5-1.1-2.7c0,0,0,0-0.1,0c-1.1-5.5-1.5-7.7-1.6-8.5c0-0.1-0.1-0.7-0.2-1.5
	c-0.2-1.3-0.4-2.2-0.6-2.9c-0.8-3.1-1.2-4.6-1.9-6.7c-0.5-1.3-1.1-3-2.2-5.1c-1-2.1-1.6-2.7-3-5.1c-0.8-1.3-1.9-3.3-3.1-5.8
	c-1.2-2.3-1.9-4.3-2.4-5.7c-0.2-0.7-0.4-1.3-0.6-2c0,0-0.1-0.4-0.2-0.9c-0.7-3.8-0.4-6.4-0.4-6.4c0.3-1.6,0.9-4.4,2.6-6.6
	c0.4-0.6,1.2-1.5,2-2.3c0.9-0.8,1.6-1.5,2.3-2c1.2-0.8,2.5-1.6,4-2.3c5.1-2.4,10-3,13.4-3.1c1.4,0.1,4.1,0.2,7.3,1.5
	c2.1,0.9,3.4,1.8,3.4,1.8C312.8,478.9,308.3,475.1,302.1,473z"/>
<path class="st8" d="M304.3,491.2c0-0.1,2.8,1,6.6,0.4c0,0,0.5-0.1,1-0.2c4.2-1,8.7-4.6,9.5-5.2c0.4-0.3,5.3-4.2,11.4-7.5
	c2.8-1.5,5.1-2.6,8-3.1c2.4-0.5,4.5-0.8,6.8,0.3c0.4,0.2,3.6,1.9,4.5,5.4c1.2,4.7-2.7,9.2-2.9,9c-0.1,0,0.4-0.9,0.2-2.2
	c-0.3-1.6-1.4-2.6-2.1-3.1c-1.6-1.3-3.2-1.7-4.2-1.8c-2.2-0.4-3.9-0.1-4.8,0.1c-4.9,0.9-9.1,2.7-10.6,3.4c-6.7,2.9-6.3,3.3-10,4.5
	c-3.7,1.2-6.4,1.5-9.1,1.2C306.2,492.1,304.3,491.3,304.3,491.2z"/>
<path class="st9" d="M350.1,493.3c-1,7.1-3.3,11.4-5.3,14c-1.1,1.4-2.9,3.4-4.7,6.8c-1.3,2.6-2.1,4.8-2.6,6.4
	c-0.7,2.4-0.9,4.4-0.9,5.2c-0.2,1.8-0.2,3.2-0.2,4.4c0,3.2,0,4.7-0.1,5.4c0.2,1,0.2,1.9,0.1,2.9c2.3-4.6,3.2-4.6,3.5-7.1
	c0.2-1.8,0.1-4.4,0.5-6.6c0.2-0.9,0.4-1.9,0.6-2.9c0.5-1.7,0.8-2.6,5.2-11.7c2.9-5.9,4-8.2,4.3-11.8
	C350.7,496,350.5,494.4,350.1,493.3z"/>
<g>
	<path class="st0" d="M301.3,545.5c0,0,0.1,0,0.4,0.1c0.3,0.1,0.7,0.2,1.2,0.4c0.5,0.1,1.1,0.3,1.8,0.5c0.7,0.2,1.5,0.3,2.4,0.4
		c0.9,0.1,1.8,0.2,2.8,0.2c0.5,0,1,0,1.5,0c0.5,0,1-0.1,1.6-0.1c1.1-0.1,2.2-0.3,3.2-0.6c1.1-0.3,2.2-0.6,3.2-1.1l0.4-0.1l0.4-0.2
		l0.8-0.4c0.5-0.3,1-0.5,1.5-0.8c0.5-0.3,0.9-0.6,1.4-0.9c0.4-0.3,0.9-0.6,1.3-1c0.8-0.7,1.6-1.4,2.3-2.1c0.7-0.7,1.3-1.4,1.9-2.1
		c1.1-1.3,2-2.5,2.6-3.4c0.6-0.9,0.9-1.4,0.9-1.4s-0.2,0.6-0.6,1.6c-0.2,0.5-0.5,1.1-0.8,1.7c-0.3,0.7-0.7,1.4-1.2,2.2
		c-0.5,0.8-1.1,1.6-1.7,2.4c-0.7,0.8-1.4,1.6-2.3,2.4c-0.9,0.8-1.8,1.5-2.8,2.2c-0.5,0.3-1.1,0.7-1.6,0.9l-0.8,0.4l-0.4,0.2
		c-0.2,0.1-0.3,0.1-0.5,0.2c-1.2,0.5-2.3,0.9-3.5,1.1c-1.2,0.3-2.4,0.4-3.6,0.5c-0.6,0-1.2,0.1-1.7,0c-0.6,0-1.1-0.1-1.6-0.1
		c-1.1-0.1-2-0.3-2.9-0.6c-1.8-0.5-3.2-1.1-4.1-1.6C301.7,545.8,301.3,545.5,301.3,545.5z"/>
</g>
</svg>
