<?xml version="1.0" encoding="UTF-8"?>
<!DOCTYPE svg PUBLIC "-//W3C//DTD SVG 1.1//EN" "http://www.w3.org/Graphics/SVG/1.1/DTD/svg11.dtd">
<!-- Creator: CorelDRAW X6 -->
<svg xmlns="http://www.w3.org/2000/svg" xml:space="preserve" width="11.0278in" height="11.0417in" version="1.1" style="shape-rendering:geometricPrecision; text-rendering:geometricPrecision; image-rendering:optimizeQuality; fill-rule:evenodd; clip-rule:evenodd"
viewBox="0 0 11028 11042"
 xmlns:xlink="http://www.w3.org/1999/xlink">
 <defs>
  <style type="text/css">
   <![CDATA[
    .fil1 {fill:#FEFEFE}
    .fil0 {fill:#2DA152;fill-rule:nonzero}
   ]]>
  </style>
 </defs>
 <g id="Layer_x0020_1">
  <metadata id="CorelCorpID_0Corel-Layer"/>
  <path class="fil0" d="M11039 5523c-2,3047 -2473,5518 -5520,5518 -3049,0 -5520,-2473 -5520,-5521 0,-3048 2471,-5520 5520,-5520 3047,0 5518,2470 5520,5517l0 6z"/>
  <path class="fil1" d="M5976 8183c-148,25 -297,39 -375,37 -576,-2 -1046,-131 -1478,-392 -55,-34 -103,-42 -168,-25 -290,80 -583,152 -873,230 -61,18 -67,5 -51,-50 77,-276 150,-551 229,-824 22,-77 14,-136 -30,-204 -597,-960 -572,-2157 96,-3045 695,-925 1639,-1304 2769,-1062 1113,235 1823,953 2084,2061 356,1515 -672,3021 -2203,3276zm2739 -3432c-360,-1493 -1644,-2511 -3197,-2529 -204,3 -419,20 -630,65 -2166,439 -3288,2840 -2232,4779 27,52 29,94 14,147 -140,511 -279,1022 -419,1532 -23,84 -23,84 61,62 530,-139 1059,-277 1589,-417 44,-12 78,-7 118,13 682,349 1401,451 2153,305 1798,-349 2972,-2177 2543,-3956z"/>
  <path class="fil1" d="M6374 7069c-117,5 -228,-22 -340,-52 -752,-216 -1316,-687 -1770,-1307 -171,-233 -330,-474 -383,-764 -63,-349 37,-643 296,-885 83,-75 334,-109 434,-60 37,18 61,52 77,87 95,226 189,449 282,675 18,44 10,85 -10,129 -48,104 -124,188 -202,270 -59,60 -62,116 -18,188 266,442 633,764 1114,957 72,28 126,18 173,-42 80,-99 165,-198 240,-300 52,-72 111,-82 185,-49 159,72 318,147 476,223 36,15 71,34 106,50 161,80 159,82 145,260 -27,347 -287,518 -595,603 -68,18 -140,20 -211,17z"/>
 </g>
</svg>
